<?xml version="1.0" encoding="utf-8" ?>
<svg xmlns="http://www.w3.org/2000/svg" xmlns:xlink="http://www.w3.org/1999/xlink" width="512" height="512">
	<path fill="#007F5F" transform="scale(0.5 0.5)" d="M0 250.207L-0 -0L1024 0L1024 247.643L1024 389.436L1024 757.783L1024 781.927L1024 1024L885.662 1024L710.363 1024L669.135 1024L658.51 1024L649.698 1024L535.536 1024L489.604 1024L376.095 1024L312.772 1024L138.677 1024L-0 1024L0 350.83L0 250.207Z"/>
	<path fill="#2B9348" transform="scale(0.5 0.5)" d="M1024 757.783L1024 781.927C1021.85 780.972 1019.33 779.935 1017.89 778.001C1015.88 775.323 1016.36 771.535 1016.8 768.394L1016.93 767.5C1017.45 763.952 1021.57 760.286 1024 757.783Z"/>
	<path fill="#FED18E" transform="scale(0.5 0.5)" d="M297.583 307.138C302.096 302.964 307.081 299.094 312.56 296.25C315.791 294.573 319.044 293.286 322.047 291.186L322.604 290.786C322.507 292.967 322.69 295.031 322.906 297.195L324.694 326.007L329.111 403.81C329.758 407.941 329.548 412.345 329.612 416.528C320.15 413.776 312.146 408.053 304.945 401.499C292.394 390.077 283.063 372.495 282.485 355.392C281.901 338.102 285.356 320.173 297.583 307.138Z"/>
	<path fill="#FD9845" transform="scale(0.5 0.5)" d="M329.111 403.81C322.044 399.173 313.948 393.834 308.893 386.859C307.053 384.32 305.773 381.398 304.444 378.57C298.491 365.902 296.79 353.98 298.877 340.024L299.002 339.25C299.903 333.353 302.97 328.315 305.655 323.102C306.671 321.13 307.522 318.689 308.911 316.966C313.614 320.189 318.616 324.23 324.14 325.853L324.694 326.007L329.111 403.81Z"/>
	<path fill="#FD9845" transform="scale(0.5 0.5)" d="M363.577 201.993L364.155 190.557C373.5 193.219 382.987 195.891 392.637 197.209C431.907 202.573 473.595 192.39 509.603 177.192C524.915 170.729 540.011 163.424 556.035 158.752C565.332 156.042 575.373 154.494 585 153.58C597.785 152.367 610.064 153.185 622.75 154.956C627.34 155.597 632.055 155.944 636.571 157.012C641.053 158.072 645.505 159.79 649.875 161.274C653.466 162.493 658.05 163.526 661.005 165.965L660.407 165.975C656.953 165.998 653.573 164.99 650.213 164.239C644.226 162.901 637.283 162.81 631.154 162.873C618.325 163.003 605.495 164.68 593.053 167.833L563.607 176.798L526.871 188.83C512.315 194.408 498.13 200.911 483.301 205.813C481.109 206.537 478.795 206.844 476.574 207.484C473.535 208.359 470.69 209.651 467.588 210.38C463.411 211.362 459.233 211.594 455 212.15C452.084 212.533 449.241 213.191 446.298 213.418C417.879 215.613 390.832 209.087 363.577 201.993Z"/>
	<path fill="#55A630" transform="scale(0.5 0.5)" d="M46.1332 225.204C57.4476 221.321 68.7973 217.396 80.4612 214.688C101.505 209.803 122.966 208.254 144.5 209.954C155.638 210.833 166.486 212.498 177.016 216.39C181.708 218.377 186.53 219.835 191.148 222.037C207.669 229.916 223.985 242.117 236.55 255.426L247.777 268.057C249.335 269.857 251.079 272.49 252.887 273.93C253.512 274.428 257.567 273.751 258.5 273.679L269.716 273.295C288.103 273.419 305.214 277.104 322.65 282.676C322.575 279.101 322.261 275.333 322.568 271.779C323.041 275.387 322.889 278.879 322.991 282.5C323.065 285.116 323.41 287.61 323.123 290.225L322.906 297.195C322.69 295.031 322.507 292.967 322.604 290.786L322.047 291.186C319.044 293.286 315.791 294.573 312.56 296.25C307.081 299.094 302.096 302.964 297.583 307.138C290.399 307.237 284.671 309.829 278 311.988C266.564 315.69 255.512 319.382 244.589 324.523C240.371 326.509 236.465 329.111 232.446 331.46C225.695 335.405 218.687 339.385 212.401 344.033C209.283 346.338 206.538 349.065 203.487 351.437C200.907 353.443 197.788 355.028 195.54 357.413C189.178 364.161 182.881 370.848 177.67 378.527L177.228 377.708C175.094 373.971 170.879 370.92 167.647 368.178C157.843 359.861 147.904 353.257 136.684 347.005C128.715 342.564 119.903 338.184 111 335.976C101.879 333.715 92.5015 331.47 83.1394 330.538C64.1119 328.644 45.5485 331.341 27.5825 337.639C18.2011 340.928 9.46468 344.734 1.06197 350.11L-0 350.83L0 250.207C2.94476 247.157 6.89329 245.12 10.5034 242.974C21.8023 236.258 33.9577 230.122 46.1332 225.204Z"/>
	<path fill="#55A630" transform="scale(0.5 0.5)" d="M946.18 237.792C972.85 233.628 998.976 238.318 1024 247.643L1024 389.436C1019.03 386.036 1013.95 382.506 1008.52 379.857C999.817 375.611 990.972 373.312 981.593 371.112C978.272 370.333 974.934 369.149 971.557 368.693C967.339 368.123 962.791 368.254 958.523 368.144C944.17 367.773 928.868 369.003 914.75 371.739C911.296 372.408 907.921 373.642 904.5 374.479C875.93 381.466 849.185 393.675 823.787 408.419L807.766 418.764C799.038 423.915 791.186 430.613 782.422 435.64C782.296 435.713 782.184 435.881 782.041 435.855C780.848 435.634 778.683 434.095 777.5 433.52C773.057 431.364 768.458 429.146 763.869 427.336C756.851 424.569 749.184 422.786 741.859 421.048C728.917 417.977 715.658 414.784 702.25 415.305C701.577 415.332 700.965 415.248 700.308 415.115L698.25 415.531L697.561 415C697.586 412.547 697.862 410.306 698.276 407.898L699.006 398.035L702.247 351.379C702.581 344.406 701.796 336.922 702.969 330.074L703.286 324.643L703.484 320.274L705.607 293.689C713.12 294.291 721.195 297.871 727.297 302.272L736.607 309.691C748.882 310.502 761.628 310.829 773.708 313.182C780.688 314.541 787.756 316.927 794.82 317.628C795.873 317.732 797.765 318.112 798.763 317.942C803.544 317.127 823.84 298.497 829.079 294.438L861.721 270.922C865.268 268.604 868.986 265.641 872.845 263.949C878.316 261.551 883.289 257.922 888.701 255.334L899.869 250.634C903.389 249.109 906.863 247.318 910.512 246.12C922.158 242.299 934.122 239.799 946.18 237.792Z"/>
	<path fill="#FED18E" transform="scale(0.5 0.5)" d="M705.607 293.689C713.12 294.291 721.195 297.871 727.297 302.272L736.607 309.691C746.736 323.455 750.17 343.534 747.617 360.251L747.153 362.75C743.912 379.741 734.285 395.761 719.927 405.699C716.385 408.151 712.483 410.347 708.5 411.999C705.829 413.106 702.849 413.779 700.308 415.115L698.25 415.531L697.561 415C697.586 412.547 697.862 410.306 698.276 407.898L699.006 398.035L702.247 351.379C702.581 344.406 701.796 336.922 702.969 330.074L703.286 324.643L703.484 320.274L705.607 293.689Z"/>
	<path fill="#FD9845" transform="scale(0.5 0.5)" d="M713.037 321.82L716.25 319.046C717.354 318.244 719.409 316.751 720.729 316.788C727.548 324.726 731.447 334.89 732.507 345.25C734.022 360.043 729.578 376.122 720.517 388.008C714.338 396.113 705.375 400.839 698.276 407.898L699.006 398.035L702.247 351.379C702.581 344.406 701.796 336.922 702.969 330.074L703.286 324.643L703.484 320.274C705.75 320.753 708.359 321.126 710.437 322.197L713.037 321.82Z"/>
	<path fill="#FDAF5C" transform="scale(0.5 0.5)" d="M703.484 320.274C705.75 320.753 708.359 321.126 710.437 322.197L713.037 321.82C711.748 324.586 709.463 326.356 707 328.001C705.651 328.902 705.81 331.232 705.61 332.775L705.089 329.385L704.878 328.5C705.401 327.797 705.252 327.598 705.255 326.75L704.41 326.664C704.306 327.735 704.127 328.366 703.534 329.252L702.969 330.074L703.286 324.643L703.484 320.274Z"/>
	<path fill="#FFDA9A" transform="scale(0.5 0.5)" d="M703.484 320.274C705.75 320.753 708.359 321.126 710.437 322.197C708.372 323.637 706.337 325.57 703.77 325.608L703.286 324.643L703.484 320.274Z"/>
	<path fill="#FED18E" transform="scale(0.5 0.5)" d="M702.969 330.074L703.534 329.252C704.127 328.366 704.306 327.735 704.41 326.664L705.255 326.75C705.252 327.598 705.401 327.797 704.878 328.5L705.089 329.385L705.61 332.775C705.688 340.051 704.964 347.052 704.657 354.27C704.458 358.949 704.779 363.692 704.405 368.357C704.212 370.77 703.258 372.896 702.949 375.231C702.12 381.512 702.752 393.055 699.006 398.035L702.247 351.379C702.581 344.406 701.796 336.922 702.969 330.074Z"/>
	<path fill="#FFDA9A" transform="scale(0.5 0.5)" d="M363.577 201.993C390.832 209.087 417.879 215.613 446.298 213.418C449.241 213.191 452.084 212.533 455 212.15C459.233 211.594 463.411 211.362 467.588 210.38C470.69 209.651 473.535 208.359 476.574 207.484C478.795 206.844 481.109 206.537 483.301 205.813C498.13 200.911 512.315 194.408 526.871 188.83L563.607 176.798L593.053 167.833C605.495 164.68 618.325 163.003 631.154 162.873C637.283 162.81 644.226 162.901 650.213 164.239C653.573 164.99 656.953 165.998 660.407 165.975L661.005 165.965C662.335 169.77 661.453 175.901 661.436 180.091L661.609 203.731C661.802 214.562 662.192 225.754 664.202 236.417C666.468 248.443 670.786 262.015 675.831 273.18C678.991 280.174 682.914 286.654 685.771 293.832C693.328 312.82 694.284 332.787 692.328 352.965C691.45 359.143 691.114 365.816 689.789 371.874C688.967 375.633 687.349 379.331 686.035 382.938C684.163 388.078 682.329 393.341 679.659 398.135C673.752 408.743 664.389 418.113 654.747 425.373C651.218 428.031 647.54 429.644 643.678 431.687C635.576 435.97 626.949 439.228 618.051 441.552C614.58 442.459 611.136 442.727 607.674 443.826L606.497 441C596.217 418.539 575.143 410.047 551.807 408.668L540.823 408.254C539.372 408.202 537.515 408.355 536.156 407.798L535.518 407.515L534.792 408.097C533.1 409.491 531.838 411.308 530.25 412.812C525.832 416.997 520.731 419.287 514.75 420.115L513.817 420.25C508.729 420.945 504.165 418.783 500.189 415.7C497.446 413.574 494.508 409.846 491.48 408.392C473.975 408.589 454.866 408.611 439.121 417.428C434.623 419.946 430.188 423.987 426.59 427.634C422.561 431.717 419.441 436.815 416.725 441.846C402.427 440.029 388.95 435.123 376.493 427.858C354.053 414.771 341.909 392.232 335.495 367.794C333.979 360.961 334.32 352.999 333.883 345.953C333.223 335.318 332.945 324.467 334.668 313.922C336.128 304.986 339.443 295.105 342.994 286.75C348.206 274.485 353.869 262.615 357.606 249.75C361.999 234.625 363.337 217.711 363.577 201.993Z"/>
	<path fill="#FED18E" transform="scale(0.5 0.5)" d="M513.38 310.905L513.191 310.479C512.674 308.9 512.964 306.632 512.958 304.968L512.991 290.406C513.918 294.016 514.194 297.595 514.716 301.267C515.003 303.289 514.819 304.773 516.057 306.5L515.995 312.197L513.38 310.905Z"/>
	<path fill="white" transform="scale(0.5 0.5)" d="M459.622 329.274C459.402 327.887 459.071 326.554 459.25 325.153C460.824 325.474 462.084 326.576 462.988 327.856L466.135 332.854C469.148 342.461 468.788 353.097 471.805 362.85C467.277 362.652 445.171 363.779 442.802 361.663C446.988 359.999 451.103 357.822 454.281 354.559C456.62 352.157 460.363 344.749 460.588 341.376C460.717 339.446 460.067 337.311 459.837 335.374C459.599 333.371 459.641 331.292 459.622 329.274Z"/>
	<path fill="white" transform="scale(0.5 0.5)" d="M562.568 334.452C564.85 330.769 568.496 326.236 572.5 324.428L572.926 324.75L572.589 326.407C569.777 331.881 570.05 338.906 571.964 344.696C574.517 352.42 579.011 356.861 586.265 360.428L588.124 361.21C583.855 364.518 572.83 362.694 567.64 362.591C564.432 362.528 561.19 362.769 557.987 362.953C559.517 357.003 559.936 350.543 560.926 344.461C561.412 341.478 562.617 338.123 562.586 335.131L562.568 334.452Z"/>
	<path fill="#007F5F" transform="scale(0.5 0.5)" d="M383.315 324.662L381.104 321.992L380.925 320.75C387.517 312.221 397.864 307.137 408.5 305.685L411.442 305.32C417.154 304.608 423.045 304.687 428.79 304.826C432.923 304.925 436.95 304.935 441 305.822L441.962 306.022C448.788 307.488 456.36 311.937 460.183 317.948C462.181 321.089 466.388 329.401 466.135 332.854L462.988 327.856C462.084 326.576 460.824 325.474 459.25 325.153C459.071 326.554 459.402 327.887 459.622 329.274C458.756 331.294 458.176 332.708 456.451 334.116C457.147 331.575 457.549 324.677 456.082 322.417L455.623 321.879C454.785 320.807 454.151 319.841 453.046 318.99C447.336 314.589 436.135 312.117 429.013 312.873C425.687 312.31 421.97 312.803 418.605 313.018C406.452 313.793 395.01 315.768 384.93 323.25L383.315 324.662Z"/>
	<defs>
		<linearGradient id="gradient_0" gradientUnits="userSpaceOnUse" x1="586.6886" y1="301.64938" x2="621.24066" y2="340.10254">
			<stop offset="0" stop-color="#007C4D"/>
			<stop offset="1" stop-color="#1C9764"/>
		</linearGradient>
	</defs>
	<path fill="url(#gradient_0)" transform="scale(0.5 0.5)" d="M562.568 334.452C562.578 332.579 563.639 330.429 564.351 328.702C565.989 324.732 567.646 320.575 569.906 316.904C574.286 309.79 582.164 307.28 589.75 305.294C595.752 303.724 603.249 304.485 609.43 304.799C613.048 304.982 616.281 304.842 619.883 305.673C627.792 307.498 634.866 310.588 640.958 315.976C642.04 316.932 643.741 318.21 644.399 319.504C645.111 320.903 644.177 323.312 643.796 324.774C642.394 323.492 640.558 322.615 638.915 321.664C632.743 318.09 626.37 315.76 619.5 313.886C614.69 312.574 608.531 312.512 603.589 313.249C600.369 312.694 597.526 312.208 594.358 313.317C588.677 315.306 583.018 314.633 578.018 318.514L577.679 319.866C578.507 320.416 579.026 320.778 579.997 321.041C578.279 322.408 577.233 323.5 576.225 325.461C574.993 326.681 574.544 328.025 573.924 329.62L572.589 326.407L572.926 324.75L572.5 324.428C568.496 326.236 564.85 330.769 562.568 334.452Z"/>
	<path fill="#80B918" transform="scale(0.5 0.5)" d="M429.778 361.66C425.888 359.81 421.31 357.696 418.25 354.602C414.21 350.515 411.896 341.994 412.008 336.281C412.064 333.403 412.267 327.311 414.25 325.371C414.532 329.754 416.728 332.083 419.638 335.083L420.702 338.502C421.855 341.979 423.294 344.744 426.75 346.367C432.019 348.841 438.63 349.615 444 347.31C449.732 344.85 454.085 339.761 456.451 334.116C458.176 332.708 458.756 331.294 459.622 329.274C459.641 331.292 459.599 333.371 459.837 335.374C460.067 337.311 460.717 339.446 460.588 341.376C460.363 344.749 456.62 352.157 454.281 354.559C451.103 357.822 446.988 359.999 442.802 361.663C438.18 362.663 434.401 362.589 429.778 361.66Z"/>
	<path fill="#1F2B33" transform="scale(0.5 0.5)" d="M429.013 312.873C436.135 312.117 447.336 314.589 453.046 318.99C454.151 319.841 454.785 320.807 455.623 321.879L456.082 322.417C457.549 324.677 457.147 331.575 456.451 334.116C454.085 339.761 449.732 344.85 444 347.31C438.63 349.615 432.019 348.841 426.75 346.367C423.294 344.744 421.855 341.979 420.702 338.502L419.638 335.083C420.749 334.478 422.06 333.857 422.953 332.955C425.132 330.756 425.489 328.205 425.451 325.25C424.364 323.1 423.428 321.778 421.053 321.032L420.086 320.75L429.013 312.873Z"/>
	<path fill="white" transform="scale(0.5 0.5)" d="M603.589 313.249C608.531 312.512 614.69 312.574 619.5 313.886C626.37 315.76 632.743 318.09 638.915 321.664C640.558 322.615 642.394 323.492 643.796 324.774C650.641 335.961 651.743 350.534 654.55 363.081L617.234 362.844C612.925 362.795 607.987 363.155 603.75 362.447C602.864 362.299 602.171 361.751 601.456 361.249C604.659 360.141 607.847 359.019 610.622 357.013C614.922 353.903 618.441 346.522 619.303 341.354C620.288 335.444 618.319 327.301 614.79 322.386C612.385 317.922 607.99 315.383 603.589 313.249Z"/>
	<defs>
		<linearGradient id="gradient_1" gradientUnits="userSpaceOnUse" x1="608.50836" y1="341.75684" x2="579.88654" y2="317.45584">
			<stop offset="0" stop-color="#25292C"/>
			<stop offset="1" stop-color="#143B3C"/>
		</linearGradient>
	</defs>
	<path fill="url(#gradient_1)" transform="scale(0.5 0.5)" d="M579.997 321.041C579.026 320.778 578.507 320.416 577.679 319.866L578.018 318.514C583.018 314.633 588.677 315.306 594.358 313.317C597.526 312.208 600.369 312.694 603.589 313.249C607.99 315.383 612.385 317.922 614.79 322.386C618.319 327.301 620.288 335.444 619.303 341.354C618.441 346.522 614.922 353.903 610.622 357.013C607.847 359.019 604.659 360.141 601.456 361.249L599.016 361.683C595.212 362.399 591.861 362.204 588.124 361.21L586.265 360.428C579.011 356.861 574.517 352.42 571.964 344.696C570.05 338.906 569.777 331.881 572.589 326.407L573.924 329.62C574.544 328.025 574.993 326.681 576.225 325.461C577.233 323.5 578.279 322.408 579.997 321.041Z"/>
	<path fill="white" transform="scale(0.5 0.5)" d="M579.997 321.041L583 320.557C584.517 320.669 586.161 322.905 586.875 324.106C587.686 325.468 588.168 326.954 587.646 328.514C586.888 330.779 584.748 332.055 582.75 333.071L581.882 333.523L581.306 333.809C578.811 331.221 577.37 328.919 576.225 325.461C577.233 323.5 578.279 322.408 579.997 321.041Z"/>
	<path fill="#80B918" transform="scale(0.5 0.5)" d="M614.79 322.386C618.319 327.301 620.288 335.444 619.303 341.354C618.441 346.522 614.922 353.903 610.622 357.013C607.847 359.019 604.659 360.141 601.456 361.249L599.016 361.683C595.212 362.399 591.861 362.204 588.124 361.21L586.265 360.428C579.011 356.861 574.517 352.42 571.964 344.696C570.05 338.906 569.777 331.881 572.589 326.407L573.924 329.62C575.361 334.843 577.224 342.104 581.872 345.283C587.32 349.01 592.641 349.981 599.129 348.608C604.286 347.516 610.236 342.704 612.954 338.25C616.294 332.778 616.262 328.42 614.79 322.386Z"/>
	<path fill="white" transform="scale(0.5 0.5)" d="M383.315 324.662L384.93 323.25C395.01 315.768 406.452 313.793 418.605 313.018C421.97 312.803 425.687 312.31 429.013 312.873L420.086 320.75L421.053 321.032C423.428 321.778 424.364 323.1 425.451 325.25C425.489 328.205 425.132 330.756 422.953 332.955C422.06 333.857 420.749 334.478 419.638 335.083C416.728 332.083 414.532 329.754 414.25 325.371C412.267 327.311 412.064 333.403 412.008 336.281C411.896 341.994 414.21 350.515 418.25 354.602C421.31 357.696 425.888 359.81 429.778 361.66C426.114 363.802 380.801 362.851 372.431 363.013C374.47 353.402 375.924 343.072 379.051 333.75C380.019 330.867 381.831 328.381 382.959 325.573L383.315 324.662Z"/>
	<path fill="#FDAF5C" transform="scale(0.5 0.5)" d="M513.38 310.905L515.995 312.197C516.128 317.36 516.877 322.199 517.408 327.305C517.653 329.657 517.424 332.043 517.723 334.389C519.388 347.471 522.3 361.051 525.394 373.874C526.839 379.865 528.833 385.906 530.798 391.751C532.219 395.973 535.76 403.241 535.518 407.515L534.792 408.097C533.1 409.491 531.838 411.308 530.25 412.812C525.832 416.997 520.731 419.287 514.75 420.115L513.817 420.25C508.729 420.945 504.165 418.783 500.189 415.7C497.446 413.574 494.508 409.846 491.48 408.392C493.937 405.273 495.104 400.898 496.512 397.209C498.965 390.782 501.758 384.355 503.12 377.584C504.125 372.587 504.141 366.906 505.75 362.157L507.25 362.057C507.174 355.975 508.987 349.017 510.104 343C512.031 332.623 513.669 321.444 513.38 310.905Z"/>
	<path fill="#007F5F" transform="scale(0.5 0.5)" d="M566.34 245.221C574.051 244.688 582.028 245.062 589.75 245.291C593.77 245.41 598.024 245.123 602.002 245.645L618.717 247.621C624.815 248.644 630.725 250.298 636.644 252.066C641.61 253.549 646.381 255.883 650.984 258.242C658.86 262.277 666.122 266.465 671.934 273.362C674.252 276.113 675.98 279.974 677.708 283.148L664.848 278.812C639.112 271.793 613.46 270.145 586.906 271.087L554.76 272.981C553.267 273.044 553.196 273.21 552.023 272.25C550.447 267.913 552.345 262.696 552.997 258.25L554.703 245.782L566.34 245.221Z"/>
	<path fill="#007F5F" transform="scale(0.5 0.5)" d="M437.121 245.215L475.186 246.161L477.523 274.113L457.375 271.73C431.605 269.765 406.209 270.861 380.615 273.952C368.601 275.967 356.604 278.87 346.419 285.833C349.396 280.859 353.002 276.209 356.911 271.934C361.936 266.438 368.296 262.455 374.853 259.026C394.603 248.698 415.154 246.198 437.121 245.215Z"/>
	<path fill="#80B918" transform="scale(0.5 0.5)" d="M692.328 352.965C692.856 353.904 693.239 354.663 693.316 355.759C693.81 362.818 692.946 370.432 692.938 377.583L692.968 402.209C692.996 404.969 693.38 407.752 693.301 410.5L692.568 420.084L690.156 470.375L688.688 502.867L685.818 526.366C684.689 534.993 683.565 542.973 681.189 551.402C679.398 557.756 677.673 564.247 675.071 570.327C668.546 585.577 657.814 599.807 645.259 610.614C639.188 615.841 632.587 620.068 625.85 624.331C622.965 626.156 620.217 628.189 617.228 629.851C610.457 633.616 602.703 636.994 595.5 639.873C592.995 640.873 588.865 641.309 586.936 643.127L590.701 653.117C590.623 655.144 590.559 657.038 589.613 658.877C587.779 662.439 583.797 665.382 580.898 668.118L573.447 675.463L552.099 695.425C542.411 703.192 534.257 713.758 523.393 719.962C520.327 720.808 516.82 720.555 513.653 720.613C508.865 720.701 503.627 720.975 498.881 720.261L498.375 718.125C494.849 716.216 492.245 712.927 489.238 710.314L460.445 684.046L441.4 664.114L439.25 662.094C438.655 661.453 437.404 660.218 437.057 659.439C435.989 657.037 436.551 652.222 436.639 649.622L439.576 642.933C438.016 641.225 433.211 639.982 430.997 639.09C426.206 637.16 421.321 635.11 416.768 632.672C400.108 623.751 385.265 611.762 373.113 597.238C365.191 587.769 357.324 576.702 352.182 565.454C349.871 560.399 347.93 554.513 346.25 549.196C338.064 523.294 337.706 495.512 336.817 468.599L335.67 400.532C335.693 389.57 334.57 378.748 335.495 367.794C341.909 392.232 354.053 414.771 376.493 427.858C388.95 435.123 402.427 440.029 416.725 441.846C419.441 436.815 422.561 431.717 426.59 427.634C430.188 423.987 434.623 419.946 439.121 417.428C454.866 408.611 473.975 408.589 491.48 408.392C494.508 409.846 497.446 413.574 500.189 415.7C504.165 418.783 508.729 420.945 513.817 420.25L514.75 420.115C520.731 419.287 525.832 416.997 530.25 412.812C531.838 411.308 533.1 409.491 534.792 408.097L535.518 407.515L536.156 407.798C537.515 408.355 539.372 408.202 540.823 408.254L551.807 408.668C575.143 410.047 596.217 418.539 606.497 441L607.674 443.826C611.136 442.727 614.58 442.459 618.051 441.552C626.949 439.228 635.576 435.97 643.678 431.687C647.54 429.644 651.218 428.031 654.747 425.373C664.389 418.113 673.752 408.743 679.659 398.135C682.329 393.341 684.163 388.078 686.035 382.938C687.349 379.331 688.967 375.633 689.789 371.874C691.114 365.816 691.45 359.143 692.328 352.965Z"/>
	<path fill="#FFDA9A" transform="scale(0.5 0.5)" d="M444.447 454.04C449.517 454.37 454.496 454.525 459.568 454.084C461.047 453.955 463.193 453.962 464.41 453.089L464.762 452.75L466 452.907C468.063 452.853 469.77 452.58 471.701 453.66C474.519 455.237 477.116 455.829 480.105 456.836C486.372 458.948 492.813 460.924 499.487 461.263L499.629 460.483C496.022 459.311 492.146 459.112 488.5 458.124C482.811 456.581 477.525 454.18 471.739 452.764L477.498 452.321C491.277 450.288 502.575 442.258 510.911 431.54C518.726 441.43 527.907 447.448 540.12 450.786L540.776 450.932C545.391 451.913 550.064 451.915 554.762 451.863C551.375 453.638 547.943 454.725 544.406 456.096C543.658 456.386 543.021 456.594 542.241 456.75L542.5 458.322C548.345 456.76 553.355 453.849 558.972 451.755L569.172 453.09L569.568 453.279C571.27 453.921 573.653 453.872 575.479 454.045L574.59 479.661L574.479 486.321C574.476 486.734 574.624 488.303 574.476 488.676C574.121 489.574 572.453 491.185 571.75 491.883C567.951 495.655 563.034 498.71 558.569 501.639C555.277 503.8 552.064 506.179 548.625 508.094C544.881 503.639 540.956 499.166 537.537 494.459C535.306 491.386 533.643 487.588 531.142 484.777C530.053 483.553 528.884 482.836 527.25 482.688L496.112 483.48L474.862 508.043C465.094 501.678 454.719 494.915 446.01 487.208L444.447 454.04Z"/>
	<path fill="#FED18E" transform="scale(0.5 0.5)" d="M540.12 450.786L540.776 450.932C545.391 451.913 550.064 451.915 554.762 451.863C551.375 453.638 547.943 454.725 544.406 456.096C543.658 456.386 543.021 456.594 542.241 456.75L542.5 458.322L542.484 458.36C541.761 458.675 541.117 458.951 540.343 459.12L539.75 459.245C537.302 460.061 534.76 460.241 532.25 460.745C530.521 461.092 528.426 460.962 526.803 461.495C525.967 461.769 525.873 461.665 525.003 461.498L524.755 460.75C525.955 460.118 527.037 460.179 528.25 459.755C529.02 459.486 529.085 459.284 529.984 459.261C531.522 459.221 532.993 458.794 534.503 458.508L540.72 456.851L541.25 456.755L541.75 455.39L542.75 455.5C542.26 454.995 541.916 454.635 541.645 453.972L540.12 450.786Z"/>
	<path fill="#007F5F" transform="scale(0.5 0.5)" d="M535.518 407.515L536.156 407.798C537.515 408.355 539.372 408.202 540.823 408.254L551.807 408.668C575.143 410.047 596.217 418.539 606.497 441L607.674 443.826L610.66 454.696L584.825 453.963C580.223 453.718 575.866 452.836 571.25 453.023C570.827 453.04 569.467 452.928 569.172 453.09L558.972 451.755C553.355 453.849 548.345 456.76 542.5 458.322L542.241 456.75C543.021 456.594 543.658 456.386 544.406 456.096C547.943 454.725 551.375 453.638 554.762 451.863C550.064 451.915 545.391 451.913 540.776 450.932L540.12 450.786C527.907 447.448 518.726 441.43 510.911 431.54C502.575 442.258 491.277 450.288 477.498 452.321L471.739 452.764C477.525 454.18 482.811 456.581 488.5 458.124C492.146 459.112 496.022 459.311 499.629 460.483L499.487 461.263C492.813 460.924 486.372 458.948 480.105 456.836C477.116 455.829 474.519 455.237 471.701 453.66C469.77 452.58 468.063 452.853 466 452.907L464.762 452.75L464.41 453.089C463.193 453.962 461.047 453.955 459.568 454.084C454.496 454.525 449.517 454.37 444.447 454.04L421.678 451.553C419.897 451.373 414.85 451.494 413.622 450.632L416.725 441.846C419.441 436.815 422.561 431.717 426.59 427.634C430.188 423.987 434.623 419.946 439.121 417.428C454.866 408.611 473.975 408.589 491.48 408.392C494.508 409.846 497.446 413.574 500.189 415.7C504.165 418.783 508.729 420.945 513.817 420.25L514.75 420.115C520.731 419.287 525.832 416.997 530.25 412.812C531.838 411.308 533.1 409.491 534.792 408.097L535.518 407.515Z"/>
	<path fill="#FD9845" transform="scale(0.5 0.5)" d="M439.576 642.933C444.896 645.127 450.477 646.25 456.022 647.668C489.31 656.175 525.825 656.488 559.635 650.517C566.33 649.334 573.033 647.456 579.541 645.507C581.789 644.834 584.665 643.359 586.936 643.127L590.701 653.117C590.623 655.144 590.559 657.038 589.613 658.877C587.779 662.439 583.797 665.382 580.898 668.118L573.447 675.463L552.099 695.425C542.411 703.192 534.257 713.758 523.393 719.962C520.327 720.808 516.82 720.555 513.653 720.613C508.865 720.701 503.627 720.975 498.881 720.261L498.375 718.125C494.849 716.216 492.245 712.927 489.238 710.314L460.445 684.046L441.4 664.114L439.25 662.094C438.655 661.453 437.404 660.218 437.057 659.439C435.989 657.037 436.551 652.222 436.639 649.622L439.576 642.933Z"/>
	<path fill="#FFDA9A" transform="scale(0.5 0.5)" d="M441.4 664.114C445.27 664.245 449.118 667.247 452.5 668.963C455.145 670.305 457.972 671.303 460.776 672.254C487.075 681.172 514.214 687.915 541.337 693.8C544.699 694.529 547.264 696.32 550.757 695.638L551.585 695.514L552.099 695.425C542.411 703.192 534.257 713.758 523.393 719.962C520.327 720.808 516.82 720.555 513.653 720.613C508.865 720.701 503.627 720.975 498.881 720.261L498.375 718.125C494.849 716.216 492.245 712.927 489.238 710.314L460.445 684.046L441.4 664.114Z"/>
	<path fill="#FFFF3F" transform="scale(0.5 0.5)" d="M436.639 649.622C436.551 652.222 435.989 657.037 437.057 659.439C437.404 660.218 438.655 661.453 439.25 662.094L441.4 664.114L460.445 684.046L489.238 710.314C492.245 712.927 494.849 716.216 498.375 718.125L498.881 720.261C494.576 720.922 490.936 722.707 486.944 724.318C482.761 726.006 478.574 727.342 475.004 730.194L477.029 732.144C483.116 739.076 486.669 749.471 488.505 758.479C489.812 762.785 489.225 767.858 489.214 772.356L489.095 797.7L489.375 858.245L489.604 1024L376.095 1024L312.772 1024L138.677 1024C142.042 1014.45 143.826 1004.37 145.959 994.5L155.653 948.548L171.22 879.037L171.698 877.491L190.792 791.975C193.732 779.288 195.372 766.427 199.962 754.158C203.573 744.507 208.566 735.894 215.031 727.874C233.16 705.386 259.766 692.318 287.483 686.073C296.466 684.05 305.947 683.218 315.09 682.093L352.582 677.686C358.497 676.547 364.539 676.203 370.5 675.425L389.782 672.615C395.236 671.826 400.795 671.142 406.085 669.563C408.995 668.165 412.257 667.289 415.25 666.006C424.325 662.115 430.159 656.894 436.639 649.622Z"/>
	<path fill="#D4D700" transform="scale(0.5 0.5)" d="M434.336 760.941C439.687 755.284 446.761 750.907 452.985 746.205C460.326 740.659 466.983 734.784 475.004 730.194L477.029 732.144C483.116 739.076 486.669 749.471 488.505 758.479L487.711 758.425C483.686 757.96 479.273 753.013 476.565 750.303C476.236 749.975 473.956 747.547 473.612 747.531C473.275 747.515 471.36 748.536 470.936 748.733C464.14 751.882 458.116 756.797 451.811 760.825C447.143 763.808 441.726 767.304 436.55 769.239C435.587 766.455 434.773 763.867 434.336 760.941Z"/>
	<path fill="#EEEF20" transform="scale(0.5 0.5)" d="M406.085 669.563C408.752 673.701 408.642 681.65 409.591 686.57C410.601 691.812 412.858 696.923 414.503 702C415.832 706.102 416.742 710.412 418.296 714.425L416.883 715.583C415.092 716.868 412.642 717.441 410.547 718.078C398.394 721.774 383.239 721.971 370.785 719.763C368.5 719.357 366.507 719.059 364.956 717.185C361.016 712.423 360.445 703.15 358.964 697.25C358.011 693.452 356.719 689.758 355.951 685.913C355.46 683.451 355.681 679.964 354.25 677.9L352.582 677.686C358.497 676.547 364.539 676.203 370.5 675.425L389.782 672.615C395.236 671.826 400.795 671.142 406.085 669.563Z"/>
	<path fill="#55A630" transform="scale(0.5 0.5)" d="M436.639 649.622C436.551 652.222 435.989 657.037 437.057 659.439C437.404 660.218 438.655 661.453 439.25 662.094L441.4 664.114L460.445 684.046L489.238 710.314C492.245 712.927 494.849 716.216 498.375 718.125L498.881 720.261C494.576 720.922 490.936 722.707 486.944 724.318C482.761 726.006 478.574 727.342 475.004 730.194C466.983 734.784 460.326 740.659 452.985 746.205C446.761 750.907 439.687 755.284 434.336 760.941L418.296 714.425C416.742 710.412 415.832 706.102 414.503 702C412.858 696.923 410.601 691.812 409.591 686.57C408.642 681.65 408.752 673.701 406.085 669.563C408.995 668.165 412.257 667.289 415.25 666.006C424.325 662.115 430.159 656.894 436.639 649.622Z"/>
	<defs>
		<linearGradient id="gradient_2" gradientUnits="userSpaceOnUse" x1="294.13641" y1="1070.2052" x2="368.63141" y2="822.76196">
			<stop offset="0" stop-color="#B3BF03"/>
			<stop offset="1" stop-color="#D6E809"/>
		</linearGradient>
	</defs>
	<path fill="url(#gradient_2)" transform="scale(0.5 0.5)" d="M171.698 877.491C176.565 878.655 183.681 877.468 188.75 877.583L267.965 877.834L279.979 877.887C281.105 877.892 283.492 877.591 284.5 877.905C284.957 878.048 285.276 878.468 285.663 878.75C291.15 877.622 297.864 878.381 303.5 878.406L337.555 878.446L351 877.905L414.858 878.251L489.26 878.451L489.313 858.95L489.375 858.245L489.604 1024L376.095 1024L312.772 1024L138.677 1024C142.042 1014.45 143.826 1004.37 145.959 994.5L155.653 948.548L171.22 879.037L171.698 877.491Z"/>
	<path fill="#AC0" transform="scale(0.5 0.5)" d="M312.772 1024L310.957 1016.82C308.815 1007.47 307.489 970.109 311.687 963.466C313.331 968.267 315.863 972.027 318.75 976.15C325.191 985.347 332.854 992.941 341.081 1000.49C348.521 1007.31 357.029 1015.13 366.168 1019.58C369.34 1021.12 373.227 1021.93 376.095 1024L312.772 1024Z"/>
	<path fill="#FFFF3F" transform="scale(0.5 0.5)" d="M590.701 653.117C595.376 655.529 598.821 659.797 603.34 662.544C606.222 664.296 609.271 665.81 612.44 666.966C614.588 667.75 617.168 668.305 619.165 669.359L679.217 678.241C699.797 682.106 720.868 683.514 741.384 687.876C758.641 691.545 776.582 698.045 790.953 708.416C800.653 715.416 809.255 724.745 815.981 734.612C821.437 742.615 826.102 752.315 828.811 761.629C831.767 771.788 833.137 782.526 835.405 792.853L848.25 850.924C850.054 859.575 851.071 868.809 853.328 877.291L874.789 976.623L880.684 1002.13C882.121 1009.6 883.24 1016.76 885.662 1024L710.363 1024L669.135 1024L658.51 1024L649.698 1024L535.536 1024L489.604 1024L489.375 858.245L489.095 797.7L489.214 772.356C489.225 767.858 489.812 762.785 488.505 758.479C486.669 749.471 483.116 739.076 477.029 732.144L475.004 730.194C478.574 727.342 482.761 726.006 486.944 724.318C490.936 722.707 494.576 720.922 498.881 720.261C503.627 720.975 508.865 720.701 513.653 720.613C516.82 720.555 520.327 720.808 523.393 719.962C534.257 713.758 542.411 703.192 552.099 695.425L573.447 675.463L580.898 668.118C583.797 665.382 587.779 662.439 589.613 658.877C590.559 657.038 590.623 655.144 590.701 653.117Z"/>
	<path fill="#DDDF00" transform="scale(0.5 0.5)" d="M546.457 728.962C548.36 728.744 549.91 729.685 551.562 730.631C558.121 734.412 563.72 739.999 569.584 744.75C576.157 750.076 583.465 755.031 589.331 761.154C589.68 764.533 588.762 766.48 587.116 769.365C580.965 765.643 575.2 761.432 569.375 757.236C564.618 753.809 559.626 750.418 555.292 746.463L535.105 761.318L535.028 759.006C536.106 755.901 536.838 752.935 538.151 749.888C539.6 742.874 543.503 735.504 546.457 728.962Z"/>
	<path fill="#FDAF5C" transform="scale(0.5 0.5)" d="M546.457 728.962C548.36 728.744 549.91 729.685 551.562 730.631L551.091 730.798C549.96 731.192 549.483 731.402 548.25 731.29C546.844 733.162 546.71 735.32 545.862 737.437C544.258 741.44 541.49 747.218 538.151 749.888C539.6 742.874 543.503 735.504 546.457 728.962Z"/>
	<path fill="#55A630" transform="scale(0.5 0.5)" d="M589.128 867.904L589.072 824.038L589.661 823.598C595.612 823.928 602.589 821.896 608.576 821.126C618.534 819.844 628.4 819.128 638.437 818.919C651.659 818.643 664.776 820.229 677.88 821.791C682.419 822.332 686.799 823.416 691.386 823.617L692.206 823.65C692.808 825.668 692.424 828.819 692.434 830.967L692.503 847.549L621.29 847.633C612.198 847.766 602.54 846.882 593.535 847.926C592.084 848.094 591.129 848.539 589.989 849.474L589.698 849.75C589.565 855.678 590.173 862.085 589.496 867.923L589.128 867.904Z"/>
	<path fill="#EEEF20" transform="scale(0.5 0.5)" d="M619.165 669.359L679.217 678.241C677.6 689.132 674.024 700.059 670.091 710.34C669.297 712.414 668.323 715.934 666.75 717.411C660.218 723.543 631.519 721.532 622.5 720.145C619.329 719.658 616.746 718.64 613.928 717.124C612.936 716.59 611.271 715.303 610.25 715.051C609.474 714.859 607.392 715.216 606.537 715.367C608.311 708.832 611.19 702.313 613.25 695.813C616.032 687.032 617.691 678.431 619.165 669.359Z"/>
	<path fill="#007F5F" transform="scale(0.5 0.5)" d="M589.496 867.923C590.173 862.085 589.565 855.678 589.698 849.75L589.989 849.474C591.129 848.539 592.084 848.094 593.535 847.926C602.54 846.882 612.198 847.766 621.29 847.633L692.503 847.549L692.533 878.125L692.537 892.038L589.495 892.024L589.496 867.923Z"/>
	<path fill="#55A630" transform="scale(0.5 0.5)" d="M590.701 653.117C595.376 655.529 598.821 659.797 603.34 662.544C606.222 664.296 609.271 665.81 612.44 666.966C614.588 667.75 617.168 668.305 619.165 669.359C617.691 678.431 616.032 687.032 613.25 695.813C611.19 702.313 608.311 708.832 606.537 715.367L589.331 761.154C583.465 755.031 576.157 750.076 569.584 744.75C563.72 739.999 558.121 734.412 551.562 730.631C549.91 729.685 548.36 728.744 546.457 728.962L545.935 728.042C538.866 722.826 531.972 720.994 523.393 719.962C534.257 713.758 542.411 703.192 552.099 695.425L573.447 675.463L580.898 668.118C583.797 665.382 587.779 662.439 589.613 658.877C590.559 657.038 590.623 655.144 590.701 653.117Z"/>
	<path fill="#007F5F" transform="scale(0.5 0.5)" d="M523.393 719.962C531.972 720.994 538.866 722.826 545.935 728.042L546.457 728.962C543.503 735.504 539.6 742.874 538.151 749.888C536.838 752.935 536.106 755.901 535.028 759.006L535.105 761.318C536.026 765.926 535.448 771.3 535.407 775.998L535.138 802.795L535.479 877.387L535.536 1024L489.604 1024L489.375 858.245L489.095 797.7L489.214 772.356C489.225 767.858 489.812 762.785 488.505 758.479C486.669 749.471 483.116 739.076 477.029 732.144L475.004 730.194C478.574 727.342 482.761 726.006 486.944 724.318C490.936 722.707 494.576 720.922 498.881 720.261C503.627 720.975 508.865 720.701 513.653 720.613C516.82 720.555 520.327 720.808 523.393 719.962Z"/>
	<path fill="#2B9348" transform="scale(0.5 0.5)" d="M510.125 776.75C512.148 776.609 514.152 777.709 516 778.437L516.809 778.744C519.199 779.826 520.406 781.889 521.219 784.281C521.913 786.324 521.686 788.482 520.784 790.411L520.497 791C519.118 793.987 516.829 796.342 513.848 797.75L513.205 797.863C509.534 798.241 506.145 795.753 503.4 793.617C502.826 791.53 501.477 784.255 502.613 782.353C504.425 779.319 506.75 777.722 510.125 776.75Z"/>
	<path fill="#2B9348" transform="scale(0.5 0.5)" d="M509.831 960.537C511.451 960.474 512.981 960.477 514.5 961.121C517.388 962.346 520.093 964.783 521.216 967.75C522.265 970.522 522.335 975.858 521.048 978.5C519.709 981.246 516.553 982.55 513.836 983.518C511.886 983.593 509.877 983.791 508.022 983.063C505.229 981.967 503.75 980.296 502.673 977.534C501.138 973.6 500.734 969.434 502.663 965.581C504.389 962.137 506.367 961.693 509.831 960.537Z"/>
	<path fill="#D4D700" transform="scale(0.5 0.5)" d="M589.128 867.904L589.496 867.923L589.495 892.024L692.537 892.038L692.533 878.125L737.66 877.931C750.426 877.13 763.538 878.156 776.326 878.341C779.896 878.392 783.455 877.955 787.027 877.92L822.409 877.832C832.562 877.82 843.255 878.544 853.328 877.291L874.789 976.623L880.684 1002.13C882.121 1009.6 883.24 1016.76 885.662 1024L710.363 1024L669.135 1024L658.51 1024L649.698 1024L535.536 1024L535.479 877.387C542.062 879.632 549.088 878.061 555.856 878.083L589.167 877.974L589.128 867.904Z"/>
	<path fill="#DDDF00" transform="scale(0.5 0.5)" d="M665.841 1014.67C677.395 1006.62 688.64 997.368 697.517 986.34C699.386 984.019 701.158 981.59 702.75 979.072C704.713 975.965 708.601 967.492 711.918 966.322C712.544 975.576 712.073 984.528 712.181 993.75C712.3 1003.99 713.309 1013.96 710.363 1024L669.135 1024C667.232 1021.54 666.411 1017.67 665.841 1014.67Z"/>
	<path fill="#BFD200" transform="scale(0.5 0.5)" d="M853.328 877.291L874.789 976.623L880.684 1002.13C882.121 1009.6 883.24 1016.76 885.662 1024L710.363 1024C713.309 1013.96 712.3 1003.99 712.181 993.75C712.073 984.528 712.544 975.576 711.918 966.322C712.903 961.812 715.1 958.106 716.817 953.888C718.627 949.441 719.774 945.292 722.004 940.923C722.647 938.332 722.632 935.61 723.163 933C723.869 929.528 725.184 926.296 725.776 922.76C726.329 919.457 726.558 916.04 727.477 912.811C728.12 910.548 729.204 908.362 729.858 906.048L733.675 890.355C734.382 887.736 735.63 885.161 736.124 882.512C736.44 880.814 736.943 879.487 737.66 877.931C750.426 877.13 763.538 878.156 776.326 878.341C779.896 878.392 783.455 877.955 787.027 877.92L822.409 877.832C832.562 877.82 843.255 878.544 853.328 877.291Z"/>
	<path fill="#D4D700" transform="scale(0.5 0.5)" d="M0 250.207L-0 -0L1024 0L1024 247.643C998.976 238.318 972.85 233.628 946.18 237.792C934.122 239.799 922.158 242.299 910.512 246.12C906.863 247.318 903.389 249.109 899.869 250.634L888.701 255.334C883.289 257.922 878.316 261.551 872.845 263.949C868.986 265.641 865.268 268.604 861.721 270.922L829.079 294.438C823.84 298.497 803.544 317.127 798.763 317.942C797.765 318.112 795.873 317.732 794.82 317.628C787.756 316.927 780.688 314.541 773.708 313.182C761.628 310.829 748.882 310.502 736.607 309.691L727.297 302.272C721.195 297.871 713.12 294.291 705.607 293.689L705.857 192.306C706.087 183.679 704.278 173.69 706.256 165.293C708.154 157.239 711.475 149.541 712.355 141.251C713.593 129.602 710.604 117.601 703.108 108.44C694.556 97.9887 681.3 90.9465 667.93 89.762C671.85 94.7605 674.57 100.401 677.251 106.126L670.807 100.491L681.278 114.852C682.745 116.955 684.619 119.167 684.402 121.865L683.915 121.631C681.909 117.95 679.293 115.176 677.007 111.75C675.787 109.921 674.98 107.83 673.75 106.008C672.473 104.115 670.756 102.539 669.343 100.75C664.593 94.7355 658.352 89.0779 652.752 83.8193C645.183 76.7114 637.301 69.463 628.536 63.8389C621.552 59.3576 613.95 56.1008 606.326 52.8969C587.45 44.965 567.69 39.1855 547.832 34.25C542.389 32.897 536.863 32.2301 531.364 31.1922C491.842 23.7319 449.253 20.5695 409.975 31.2306C393.255 35.7687 377.264 43.1562 362.502 52.1836C336.036 68.3673 308.603 95.5781 301.771 126.802C299.068 139.151 300.552 152.685 307.373 163.41C311.958 168.234 316.883 171.755 322.383 175.42L322.568 271.779C322.261 275.333 322.575 279.101 322.65 282.676C305.214 277.104 288.103 273.419 269.716 273.295L258.5 273.679C257.567 273.751 253.512 274.428 252.887 273.93C251.079 272.49 249.335 269.857 247.777 268.057L236.55 255.426C223.985 242.117 207.669 229.916 191.148 222.037C186.53 219.835 181.708 218.377 177.016 216.39C166.486 212.498 155.638 210.833 144.5 209.954C122.966 208.254 101.505 209.803 80.4612 214.688C68.7973 217.396 57.4476 221.321 46.1332 225.204C33.9577 230.122 21.8023 236.258 10.5034 242.974C6.89329 245.12 2.94476 247.157 0 250.207Z"/>
	<path fill="#BFD200" transform="scale(0.5 0.5)" d="M46.1332 225.204C47.672 221.203 48.4748 216.984 50.1511 213.038C52.2633 208.065 54.9906 203.24 57.4104 198.403C67.9024 177.431 80.4171 157.586 96.7886 140.7C101.68 135.654 107.104 130.333 112.908 126.33C117.187 123.379 122.395 120.089 127.012 117.796C130.333 116.146 134.002 114.984 137.448 113.612C147.688 109.533 157.057 106.289 168.018 104.585C171.378 104.063 175.512 103.379 178.876 104.162C180.196 104.47 181.09 104.6 182.452 104.58L182.978 104.569C194.219 105.605 206.015 107.396 216.773 110.95C221.516 112.517 226.073 114.698 230.75 116.453C237.118 118.843 243.186 120.966 249.181 124.265C263.653 132.23 277.449 143.241 290.006 153.929C294.067 157.385 298.403 160.772 302.914 163.617C304.218 164.439 305.073 165.307 306.651 165.128L307.373 163.41C311.958 168.234 316.883 171.755 322.383 175.42L322.568 271.779C322.261 275.333 322.575 279.101 322.65 282.676C305.214 277.104 288.103 273.419 269.716 273.295L258.5 273.679C257.567 273.751 253.512 274.428 252.887 273.93C251.079 272.49 249.335 269.857 247.777 268.057L236.55 255.426C223.985 242.117 207.669 229.916 191.148 222.037C186.53 219.835 181.708 218.377 177.016 216.39C166.486 212.498 155.638 210.833 144.5 209.954C122.966 208.254 101.505 209.803 80.4612 214.688C68.7973 217.396 57.4476 221.321 46.1332 225.204Z"/>
	<path fill="#BFD200" transform="scale(0.5 0.5)" d="M705.857 192.306C706.788 192.402 708.015 192.815 708.76 192.193C710.868 190.433 712.562 187.254 714.138 184.981L725.428 168.95C732.766 159.43 741.556 151.628 751.289 144.72C754.04 142.768 756.644 140.561 759.613 138.94C774.011 131.081 793.307 126.708 809.629 127.339C813.137 127.474 816.491 128.182 819.941 128.75C844.452 132.786 865.399 143.565 884.582 159.145C890.094 163.622 895.189 167.845 899.994 173.1C908.659 182.576 917.104 192.726 924.48 203.232C927.043 206.884 928.959 210.945 931.544 214.573C935.585 220.245 940.104 224.273 942.285 231.222C942.624 232.303 943.67 237.417 944.584 237.502C945.443 237.582 945.152 237.556 946.18 237.792C934.122 239.799 922.158 242.299 910.512 246.12C906.863 247.318 903.389 249.109 899.869 250.634L888.701 255.334C883.289 257.922 878.316 261.551 872.845 263.949C868.986 265.641 865.268 268.604 861.721 270.922L829.079 294.438C823.84 298.497 803.544 317.127 798.763 317.942C797.765 318.112 795.873 317.732 794.82 317.628C787.756 316.927 780.688 314.541 773.708 313.182C761.628 310.829 748.882 310.502 736.607 309.691L727.297 302.272C721.195 297.871 713.12 294.291 705.607 293.689L705.857 192.306Z"/>
</svg>
