<?xml version="1.0" encoding="utf-8" ?>
<svg xmlns="http://www.w3.org/2000/svg" xmlns:xlink="http://www.w3.org/1999/xlink" width="512" height="512">
	<path fill="#1B1B19" transform="scale(0.5 0.5)" d="M-0 -0L1024 0L1024 1024L-0 1024L0 -0Z"/>
	<path fill="#798D56" transform="scale(0.5 0.5)" d="M368.142 978.964L368.456 979.152C368.563 980.697 368.372 982.106 367.691 983.499C367.199 984.508 367.217 984.283 366.25 984.624C365.108 983.741 365.221 983.692 364.961 982.25C365.859 980.414 366.502 980.111 368.142 978.964Z"/>
	<path fill="#EEEF20" transform="scale(0.5 0.5)" d="M549.721 508.473C547.554 508.446 543.865 508.473 542.25 507.015C543.232 505.289 544.529 504.334 546.076 503.123C547.782 504.666 548.682 506.318 549.725 508.328L549.721 508.473Z"/>
	<path fill="#FDFDFC" transform="scale(0.5 0.5)" d="M405.549 818.75L406.155 818.809C407.183 819.946 407.664 821.832 408.215 823.266L412.087 833.915C410.198 831.231 408.027 828.434 406.559 825.502C405.367 823.121 404.744 821.339 405.549 818.75Z"/>
	<path fill="#EEEF20" transform="scale(0.5 0.5)" d="M631.139 693.712C637.099 693.489 640.142 694.545 645.021 697.815L636.236 698.868C635.28 697.15 634.452 696.238 632.865 695.097L631.637 694.146L631.139 693.712Z"/>
	<path fill="#D4D700" transform="scale(0.5 0.5)" d="M654.166 705.88C655.89 709.399 656.738 712.647 655.433 716.532C654.586 719.053 653.055 720.98 651.16 722.792C650.212 721.484 650.263 720.12 649.331 718.807C650.003 718.188 650.545 717.685 650.987 716.869C653.186 712.816 653.891 710.478 654.166 705.88Z"/>
	<path fill="#798D56" transform="scale(0.5 0.5)" d="M635.818 951.133C639.105 951.01 641.671 950.916 644.298 953.25C649.342 957.732 653.188 964.485 653.485 971.25L653.395 975.605C651.366 973.407 650.602 967.042 649.388 963.972C647.687 959.667 644.148 953.864 639.291 952.643C637.554 952.207 636.026 953.025 634.264 952.175L633.403 951.728L635.818 951.133Z"/>
	<path fill="#FDFDFC" transform="scale(0.5 0.5)" d="M538.077 894.907C542.409 897.946 546.08 902.83 549.841 906.592C553.791 910.544 558.109 913.949 561.625 918.318C557.781 915.836 554.321 913.249 550.821 910.312C546.429 906.625 541.368 901.152 535.546 900.175L534.876 899.25L535.352 897.75C536.063 895.993 536.326 895.574 538.077 894.907Z"/>
	<path fill="#617557" transform="scale(0.5 0.5)" d="M368.417 974.891L368.42 974.55L368.417 971.218C368.649 965.082 373.444 958.948 377.75 954.952C380.204 952.674 382.873 950.32 386.372 950.453L386.75 951.89L387.22 952.093C388.369 952.599 389.241 952.982 390.124 953.914C386.453 954.164 383.342 954.674 380.015 956.305C374.601 961.573 371.436 967.327 369.261 974.546L368.417 974.891Z"/>
	<path fill="#738514" transform="scale(0.5 0.5)" d="M584.812 840.145L589.5 839.844C590.587 841.043 590.671 842.398 590.934 843.929C589.951 844.03 588.991 844.095 588.033 844.346C582.345 845.727 576.079 846.014 570.25 846.515C568.868 845.903 568.948 845.307 568.408 843.938L568.533 842.972C571.482 841.198 576.771 841.178 580.155 840.794C581.73 840.647 583.271 840.526 584.812 840.145Z"/>
	<path fill="#738514" transform="scale(0.5 0.5)" d="M452.457 847.7C447.561 846.23 442.11 846.672 437.051 845.28C434.304 844.524 433.128 843.721 431.75 841.206L432.25 840.496C441.382 840.36 451.509 840.984 459.281 846.208L461.581 848.893C459.311 849.846 454.878 848.258 452.457 847.7Z"/>
	<path fill="#536859" transform="scale(0.5 0.5)" d="M392.739 941.707C394.462 939.775 395.852 937.553 398.657 937.484C402.817 937.381 408.212 940.627 411.837 942.541C415.163 944.461 420.4 946.868 422.576 950L422.5 950.908C420.636 950.343 418.879 948.811 417.134 947.895C413.17 945.812 408.61 944.02 404.352 942.683C403.5 943.475 402.218 945.011 401.25 945.566C400.167 946.187 396.211 946.054 394.836 946.138C393.446 945.699 390.942 945.944 389.418 945.88L388.291 945.774C389.127 944.023 391.21 942.845 392.739 941.707Z"/>
	<path fill="#617557" transform="scale(0.5 0.5)" d="M392.739 941.707L399.751 944.192L400.752 944.375C398.842 945.322 393.047 945.429 390.853 945.492C389.906 945.52 390.269 945.451 389.418 945.88L388.291 945.774C389.127 944.023 391.21 942.845 392.739 941.707Z"/>
	<path fill="#4B5F5A" transform="scale(0.5 0.5)" d="M402.573 699.635L412.73 705.547C414.492 713.645 417.066 725.729 413.274 733.389C412.443 728.996 411.909 724.535 410.696 720.222C408.715 713.177 405.52 706.33 402.573 699.635Z"/>
	<path fill="#D4D700" transform="scale(0.5 0.5)" d="M459.944 845.018L458.95 843.75C464.027 842.141 472.529 844.632 477.779 845.486C486.291 846.871 494.809 848.096 503.145 850.311C505.482 850.933 507.944 851.33 510.147 852.36L510.499 852.558L510 853.923C506.456 854.287 501.614 852.49 497.972 851.958L469.51 848.228L466.5 847.559C463.986 847 462.163 846.351 459.944 845.018Z"/>
	<path fill="#D4D700" transform="scale(0.5 0.5)" d="M515.115 853.069L515.791 851.753C517.897 850.481 520.452 850.133 522.833 849.621C529.507 848.185 536.298 847.73 543.04 846.759L557.396 844.508C560.937 843.954 564.283 843.175 567.849 843.951L567.331 846.331C560.111 849.393 550.764 849.307 543.049 850.229L523.34 852.265C520.565 852.576 517.932 853.061 515.115 853.069Z"/>
	<path fill="#536859" transform="scale(0.5 0.5)" d="M622.144 937.865C624.322 937.198 626.418 936.691 628.669 936.343C632.788 939.763 635.026 943.87 637.803 948.379C631.546 946.722 627.178 944.734 620.669 947.289C616.561 947.004 612.192 948.266 608.044 948.599L610.686 946.739C613.586 944.952 618.776 942.969 620.968 940.627C616.845 941.438 610.988 944.924 607.334 947.104C606.453 947.629 606.984 947.504 605.755 947.25L605.575 945.078C610.642 941.968 616.642 940.106 622.144 937.865Z"/>
	<path fill="#EEEF20" transform="scale(0.5 0.5)" d="M419.68 732.25C420.217 732.139 420.736 732.016 421.286 731.997C426.614 731.816 445.847 738.783 449.75 742.666C449.342 743.935 448.888 744.59 448 745.579L446.212 745.483C440.126 743.588 433.809 741.474 427.555 740.268C423.059 739.4 418.467 739.191 413.944 738.406L419.68 732.25Z"/>
	<path fill="#EEEF20" transform="scale(0.5 0.5)" d="M324.627 565.429C326.555 566.514 328.372 568.466 330.5 568.459C331.008 567.955 331.512 567.523 331.884 566.907C333.98 569.517 336.541 571.772 338.788 574.265C341.683 577.477 344.498 581.12 347.819 583.894C351.707 587.141 356.318 589.802 360.581 592.543L350.436 595.404C343.577 589.674 337.592 582.469 332.045 575.5C329.482 572.28 326.527 569.091 324.627 565.429Z"/>
	<path fill="#D4D700" transform="scale(0.5 0.5)" d="M647.637 609.462L650.048 608.265C650.03 609.219 649.89 610.001 649.705 610.932L631.074 636.194C629.56 638.008 628.004 639.78 626.693 641.748C625.63 643.346 622.549 646.832 620.893 647.699C614.634 653.302 608.618 657.277 601 660.886C599.588 661.554 597.072 663.015 595.555 663.19L594.608 663.105C602.283 658.395 609.096 653.084 615.896 647.215C617.784 645.575 620.05 643.929 621.325 641.754C623.811 637.515 627.752 633.945 630.898 630.169L643.494 614.091C644.429 613.775 646.839 610.379 647.637 609.462Z"/>
	<path fill="#EEEF20" transform="scale(0.5 0.5)" d="M582.267 737.633C578.068 738.699 571.919 738.816 567.561 738.409C566.793 738.337 566.199 738.245 565.43 738.35C562.841 738.703 559.994 738.545 557.368 738.576L558.206 737.513C560.565 734.202 563.147 732.838 566.564 730.751C573.291 726.642 580.807 723.944 587.382 719.798L587.986 719.411C586.13 723.029 580.868 733.084 581.781 736.824L582.267 737.633Z"/>
	<defs>
		<linearGradient id="gradient_0" gradientUnits="userSpaceOnUse" x1="607.49371" y1="638.24756" x2="652.7016" y2="603.41052">
			<stop offset="0" stop-color="#657021"/>
			<stop offset="1" stop-color="#243029"/>
		</linearGradient>
	</defs>
	<path fill="url(#gradient_0)" transform="scale(0.5 0.5)" d="M618.766 625.47L618.879 625.257C622.179 621.206 627.285 619.038 631.5 616.114L644.75 607.033C647.327 605.273 649.494 602.876 652.64 602.328L647.637 609.462C646.839 610.379 644.429 613.775 643.494 614.091C641.146 613.903 639.221 614.23 637.413 615.858C632.037 620.702 627.944 627.002 621.878 631.228L609.517 642.375C609.576 641.749 609.521 640.259 609.763 639.75C611.065 637.007 614.476 635.487 614.633 632.25L613.75 631.989L612.459 633.079C611.849 632.869 611.285 632.578 610.703 632.302L610.75 631.09L611.75 630.698C612.52 631.135 612.84 631.257 613.75 631.423L618.766 625.47Z"/>
	<path fill="#4B5F5A" transform="scale(0.5 0.5)" d="M367.441 598.212L367.83 598.459C368.806 599.07 369.649 599.472 370.713 599.906C374.315 601.374 377.51 604.076 380.598 606.378L391.587 614.386C393.945 616.219 395.976 618.32 398.68 619.649C401.252 620.914 403.537 623.524 405.499 625.567L405.436 625.894L404.627 626.555C405.781 629.478 407.904 632.888 409.938 635.313C411.749 637.472 413.748 639.1 415.281 641.502C407.345 637.886 401.284 630.824 394.714 625.218C392.131 623.015 389.563 621.468 387.113 618.987L384.728 615.562C382.743 613.172 380.235 610.378 377.058 610.096C376.972 610.094 376.436 609.304 376.29 609.11C373.789 605.777 371.196 602.509 368.098 599.711L367.441 598.212Z"/>
	<defs>
		<linearGradient id="gradient_1" gradientUnits="userSpaceOnUse" x1="649.06171" y1="631.50873" x2="641.01416" y2="609.00049">
			<stop offset="0" stop-color="#202523"/>
			<stop offset="1" stop-color="#5B6545"/>
		</linearGradient>
	</defs>
	<path fill="url(#gradient_1)" transform="scale(0.5 0.5)" d="M654.898 599.684L655.618 599.299L657.245 601.441L660.868 603.295L665.599 605.359C664.332 605.304 663.377 605.226 662.132 605.559C658.976 610.887 657.277 617.097 654.435 622.682C654.077 622.454 654.281 622.611 653.852 622.083L653.48 621.62L652.486 622.035L652.245 620.75C649.626 622.246 647.978 624.801 646.088 627.091L638.864 635.05C638.082 635.472 637.337 635.844 636.625 636.375L636 635.255L635.33 635.613C633.843 636.355 632.692 636.299 631.074 636.194L649.705 610.932C649.89 610.001 650.03 609.219 650.048 608.265L647.637 609.462L652.64 602.328C653.266 601.339 654.102 600.538 654.898 599.684Z"/>
	<path fill="#9BA52F" transform="scale(0.5 0.5)" d="M654.898 599.684C655.583 602.39 653.666 605.139 652.25 607.465C651.516 608.671 650.667 609.9 649.705 610.932C649.89 610.001 650.03 609.219 650.048 608.265L647.637 609.462L652.64 602.328C653.266 601.339 654.102 600.538 654.898 599.684Z"/>
	<path fill="#798D56" transform="scale(0.5 0.5)" d="M657.245 601.441L660.868 603.295C660.063 608.621 655.113 614.619 651.282 618.232C652.811 615.518 654.663 612.623 655.554 609.634C656.338 607.003 656.601 604.127 657.245 601.441Z"/>
	<defs>
		<linearGradient id="gradient_2" gradientUnits="userSpaceOnUse" x1="701.07574" y1="165.25688" x2="689.4989" y2="124.506">
			<stop offset="0" stop-color="#262A2A"/>
			<stop offset="1" stop-color="#444E4F"/>
		</linearGradient>
	</defs>
	<path fill="url(#gradient_2)" transform="scale(0.5 0.5)" d="M686.175 123.861L696.982 138.63C701.361 144.415 706.36 150.54 709.813 156.909C709.041 159.921 706.963 162.222 706.885 165.25C706.866 165.999 706.71 166.311 706.347 166.962C699.576 155.736 692.35 144.057 682.683 135.118C682.678 134.89 681.194 133.449 680.934 133.17C682.254 129.779 685.15 127.48 686.175 123.861Z"/>
	<path fill="#D6D9D9" transform="scale(0.5 0.5)" d="M535.546 900.175C532.702 900.805 528.566 900.155 525.606 900.101L495.288 900.035C492.315 900.042 487.393 899.457 484.628 900.169C483.379 900.49 481.725 902.068 480.737 902.881C475.468 907.215 470.895 912.69 465.526 916.76C464.604 917.459 463.915 917.812 462.75 917.805C463.334 917.09 463.763 916.606 464.025 915.703C465.251 911.461 481.074 897.682 485.121 894.199C497.296 894.992 509.556 894.738 521.753 894.724C526.537 894.719 533.628 893.542 538.077 894.907C536.326 895.574 536.063 895.993 535.352 897.75L534.876 899.25L535.546 900.175Z"/>
	<defs>
		<linearGradient id="gradient_3" gradientUnits="userSpaceOnUse" x1="451.21606" y1="671.14233" x2="458.96429" y2="658.32837">
			<stop offset="0" stop-color="#B0B408"/>
			<stop offset="1" stop-color="#5B642A"/>
		</linearGradient>
	</defs>
	<path fill="url(#gradient_3)" transform="scale(0.5 0.5)" d="M415.281 641.502C413.748 639.1 411.749 637.472 409.938 635.313C407.904 632.888 405.781 629.478 404.627 626.555L405.436 625.894L410.175 631.46C414.559 637.118 419.298 642.116 424.375 647.131C428.622 651.327 432.731 655.418 437.987 658.366L445.241 663.306L461.683 672.87C471.475 678.272 481.8 683.072 492.211 687.159C497.595 689.273 503.088 690.547 508.5 692.398C509.772 692.833 510.415 693.254 510.78 694.635C510.886 695.037 510.796 695.56 510.75 695.968C508.184 696.674 502.826 694.303 500.302 693.41L477.267 684.523L464.008 678.226C463.566 677.354 456.243 674.194 454.896 673.452C450.267 670.901 445.448 668.024 441.321 664.717C430.845 660.324 423.628 648.826 415.281 641.502Z"/>
	<path fill="#738514" transform="scale(0.5 0.5)" d="M612.459 633.079L613.75 631.989L614.633 632.25C614.476 635.487 611.065 637.007 609.763 639.75C609.521 640.259 609.576 641.749 609.517 642.375L591.094 658.837C588.873 660.737 585.761 664.063 583 664.821L581.766 663.99L581.007 664.963C577.955 668.678 572.205 671.246 568 673.518L549.236 683.238C546.354 684.629 542.584 685.821 540.049 687.698C536.708 688.627 533.468 690.292 530.19 691.476C525.436 693.193 520.565 694.283 516.024 696.578C515.313 696.937 515.126 696.815 514.353 696.75C514.042 695.549 514.146 694.623 514.25 693.403C525.397 690.697 536.057 685.692 546.373 680.824C549.046 679.562 551.839 678.607 554.472 677.241C563.495 672.556 572.703 666.593 580.848 660.548C589.297 654.321 598.489 647.961 606.005 640.638C608.322 638.379 610.92 635.949 612.459 633.079Z"/>
	<path fill="#4B5F5A" transform="scale(0.5 0.5)" d="M632.397 903.011L635.956 912.514L635.75 917.389C630.952 921.003 625.426 922.946 619.85 925.045C615.7 926.606 611.202 928.383 606.797 928.928C601.657 929.565 595.601 928.923 590.461 928.507C592.734 926.941 595.097 925.274 597.639 924.171C601.052 922.689 604.75 921.93 608.078 920.219C612.963 917.709 617.474 914.043 622.011 910.928C625.628 908.444 630.053 906.987 632.397 903.011Z"/>
	<path fill="#4B5F5A" transform="scale(0.5 0.5)" d="M393.235 902.775C394.324 903.586 395.138 904.043 396.387 904.588C401.176 906.679 404.727 910.273 409.119 912.946C417.551 918.079 427.241 922.41 434.99 928.55C421.602 928.438 409.208 927.013 397 920.948C391.188 918.06 393.584 912.068 391.909 907.206L391.708 906.651L393.235 902.775Z"/>
	<path fill="#4B5F5A" transform="scale(0.5 0.5)" d="M471.352 840.846C473.264 839.305 476.8 838.401 479.09 837.426L496.813 829.768C501.46 827.753 505.656 825.035 510.52 823.529C511.837 831.704 510.558 840.524 510.55 848.827L471.352 840.846Z"/>
	<path fill="#FFFF3F" transform="scale(0.5 0.5)" d="M305.777 483.23C308.26 485.998 312.396 489.605 313.919 492.899C315.489 496.296 315.223 501.561 315.97 505.296L323.604 541.786C325.588 550.295 327.281 559.363 331.884 566.907C331.512 567.523 331.008 567.955 330.5 568.459C328.372 568.466 326.555 566.514 324.627 565.429C321.596 560.343 320.948 554.581 319.56 548.919L313.517 524C311.569 515.841 308.59 506.991 307.689 498.686C307.166 493.869 301.468 488.801 298.963 484.529L298.645 483.972L302.5 485.921C304.272 485.299 304.597 484.648 305.777 483.23Z"/>
	<path fill="#4B5F5A" transform="scale(0.5 0.5)" d="M514.578 840.649L514.658 839.96L514.869 822.566L558.689 838.68L554.732 840.412C546.921 843.583 536.999 844.636 528.661 845.943C524.057 846.665 519.541 847.73 514.895 848.203L514.578 840.649Z"/>
	<path fill="#4B5F5A" transform="scale(0.5 0.5)" d="M380.015 956.305L380.929 956.262C383.269 956.135 385.38 955.525 387.782 955.529C392.858 955.538 398.206 956.744 403.133 955.692C405.086 955.274 406.947 956.959 408.269 958.215C408.818 958.737 409.173 959.012 409.366 959.758C409.715 961.101 410.337 962.346 411.054 963.527L412.115 973.977L369.261 974.546C371.436 967.327 374.601 961.573 380.015 956.305Z"/>
	<path fill="#4B5F5A" transform="scale(0.5 0.5)" d="M457.966 748.642L456 747.931C454.827 747.515 454.19 747.159 453.25 746.333C453.508 744.822 454.048 744.008 455.25 743.087C459.109 740.128 478.583 742.252 484.392 742.285C485.789 742.292 486.954 741.738 488.323 741.741L511.502 742.78C525.042 743.173 538.613 742.938 552.092 744.619L536.534 747.658C531.854 747.206 526.018 748.357 521.295 748.86L493.693 751.647C488.921 752.07 483.812 752.636 479.022 752.493C477.131 752.437 473.005 751.269 471.534 752.294C469.098 752.173 466.261 750.41 463.953 749.507C461.881 748.696 460.172 748.598 457.966 748.642Z"/>
	<path fill="#4B5F5A" transform="scale(0.5 0.5)" d="M627.845 952.636C629.664 952.121 631.504 951.37 633.403 951.728L634.264 952.175C636.026 953.025 637.554 952.207 639.291 952.643C644.148 953.864 647.687 959.667 649.388 963.972C650.602 967.042 651.366 973.407 653.395 975.605L653.458 976.082L653.283 976.024C650.276 974.067 643.632 974.586 639.995 974.521L610.588 974.365C611.051 969.611 612.972 963.692 615.878 959.782C616.411 959.064 617.321 957.704 618.013 957.248C620.504 955.605 626.388 955.271 629.488 954.85C631.551 955.361 634.445 954.814 636.675 955.102L641.653 955.524L638.539 954.382C635.021 953.025 631.821 954.037 628.643 952.937L627.845 952.636Z"/>
	<path fill="#EEEF20" transform="scale(0.5 0.5)" d="M628.536 714.059C633.994 713.808 639.086 714.859 643.856 717.662C646.169 719.022 647.74 720.972 648.298 723.634C648.577 724.963 648.436 726.067 647.657 727.173C643.58 732.965 632.223 729.721 626.221 731.123C623.934 731.657 621.57 733.149 619.412 734.105C616.835 735.248 614.381 735.854 611.621 736.362C605.33 737.518 598.883 738.18 592.521 737.408C595.583 734.073 598.625 730.416 602.104 727.518C605.143 724.987 608.808 723.179 612.269 721.288C617.689 718.325 622.543 715.675 628.536 714.059Z"/>
	<path fill="#FFFF3F" transform="scale(0.5 0.5)" d="M719.819 479.603C721.016 482.117 721.291 483.367 724.129 484.472C722.09 487.951 719.268 491.037 716.694 494.13C715.532 495.525 713.927 497.051 713.485 498.84L699.633 562C698.832 565.242 696.95 567.527 694.986 570.138C691.306 575.034 687.474 579.006 683.367 583.486C679.808 587.37 676.931 591.212 672.54 594.212L664.548 592.144C671.979 584.745 680.838 578.357 687.661 570.376C689.498 568.227 691.317 565.739 692.417 563.13C694.938 557.15 696.143 549.859 697.411 543.5L703.877 509.906L706.087 496.262C706.454 494.083 706.649 491.61 707.532 489.592C713.409 488.475 716.292 484.056 719.819 479.603Z"/>
	<path fill="#FDFDFC" transform="scale(0.5 0.5)" d="M298.645 483.972C285.139 465.083 276.255 440.779 273.647 417.75C272.172 404.726 276.512 388.544 284.665 378.293C287.68 379.85 290.414 381.962 293.349 383.672C296.026 385.232 300.363 386.85 302.463 389.075C304.495 391.227 303.531 396.341 303.353 399.106L288.104 390.293C282.963 394.757 281.454 402.542 280.756 409.026C280.26 413.633 280.903 418.418 281.46 423C282.997 435.631 286.411 446.401 291.4 458.07C295.348 467.305 299.443 475.352 305.777 483.23C304.597 484.648 304.272 485.299 302.5 485.921L298.645 483.972Z"/>
	<path fill="#FDFDFC" transform="scale(0.5 0.5)" d="M719.819 479.603C724.566 472.999 728.21 466.104 731.714 458.802C739.412 442.759 744.703 425.698 741.766 407.709C740.709 401.235 738.855 395.564 735.62 389.87C728.645 393.333 722.807 398.34 716.222 402.43L717.66 390.408L731.467 381.422C732.778 380.546 736.617 377.379 737.852 377.561C749.024 393.122 751.24 411.535 748.108 429.942C747.288 434.761 745.673 439.375 744.152 444.002C742.885 447.859 741.772 451.85 740.233 455.607C736.069 465.774 730.274 475.42 724.129 484.472C721.291 483.367 721.016 482.117 719.819 479.603Z"/>
	<path fill="#FFFF3F" transform="scale(0.5 0.5)" d="M581.781 736.824C585.089 732.539 586.55 728.226 588.911 723.478C591.11 719.055 594.151 714.362 597.172 710.455C605.267 699.986 618.458 695.278 631.139 693.712L631.637 694.146L632.865 695.097C634.452 696.238 635.28 697.15 636.236 698.868C631.225 700.306 625.843 702.032 621.307 704.642C617.343 706.923 613.732 709.937 610.136 712.75C610.796 713.11 610.63 713.183 611.339 712.985C614.16 712.199 617.679 708.819 620.25 707.203C626.754 703.113 640.252 696.855 647.845 700.259C650.58 701.485 652.4 703.537 654.166 705.88C653.891 710.478 653.186 712.816 650.987 716.869C650.545 717.685 650.003 718.188 649.331 718.807C643.885 714.04 637.424 710.849 630 711.501C625.891 711.862 618.766 714.826 615.288 717.038C611.222 719.625 607.956 722.336 603.302 723.933C598.304 725.648 593.59 732.964 591.041 737.428C588.623 737.552 584.484 738.305 582.267 737.633L581.781 736.824Z"/>
	<path fill="#EEEF20" transform="scale(0.5 0.5)" d="M287.973 395.1C293.513 397.39 298.605 400.901 303.629 404.144C306.088 408.473 305.71 422.458 306.089 427.893L312.433 485.75L311.75 486.149L310.284 484.75C307.6 481.277 305.582 477.351 303.481 473.513C299.973 467.107 296.788 460.863 293.985 454.103C286.74 436.631 280.44 413.289 287.973 395.1Z"/>
	<defs>
		<linearGradient id="gradient_4" gradientUnits="userSpaceOnUse" x1="428.27502" y1="674.81451" x2="444.54868" y2="630.43933">
			<stop offset="0" stop-color="#1E2E2F"/>
			<stop offset="1" stop-color="#5C5A60"/>
		</linearGradient>
	</defs>
	<path fill="url(#gradient_4)" transform="scale(0.5 0.5)" d="M368.098 599.711C371.196 602.509 373.789 605.777 376.29 609.11C376.436 609.304 376.972 610.094 377.058 610.096C379.532 613.896 382.512 617.297 385.656 620.558C389.509 626.779 394.667 631.908 399.659 637.204C407.779 645.819 415.772 654.111 425.14 661.418L426.526 661.226L426.75 660.755C428.926 662.69 432.055 667.787 434.903 668.329C435.476 668.31 436.801 668.091 437.291 668.25C440.208 669.197 443.714 672.374 446.46 673.961C450.507 676.3 454.726 677.642 458.855 679.691C461.953 681.229 464.99 683.358 468.306 684.332C476.062 688.362 484.316 691.676 492.484 694.784C496.387 696.269 500.871 697.398 504.495 699.434C506.401 700.505 509.114 700.464 510.712 701.927L510.971 702.946C505.897 701.036 499.884 700.187 494.59 698.829C486.428 696.735 477.218 693.364 469.536 689.821C463.921 688.307 458.415 685.89 453.011 683.75C441.93 679.361 430.236 674.534 420.25 667.908C416.83 665.638 413.769 662.746 410.581 660.165C403.467 654.404 396.242 648.202 389.892 641.607C386.547 638.133 384.352 633.683 380.858 630.25L380.5 630.5L379.702 630.978L379.979 631.661C380.689 633.351 381.757 634.915 382.672 636.501C383.621 638.145 383.56 640.501 383.693 642.36L372.153 622.952L367.155 615.947C366.145 614.386 365.522 612.541 363.83 611.612C362.697 610.692 361.631 606.966 361.129 605.498C363.5 604.44 365.182 603.335 367.157 601.668L368.098 599.711Z"/>
	<path fill="#D4D700" transform="scale(0.5 0.5)" d="M368.098 599.711C371.196 602.509 373.789 605.777 376.29 609.11C376.436 609.304 376.972 610.094 377.058 610.096C379.532 613.896 382.512 617.297 385.656 620.558C389.509 626.779 394.667 631.908 399.659 637.204C407.779 645.819 415.772 654.111 425.14 661.418L424.024 661.791C420.374 660.045 416.968 656.994 413.715 654.57C408.375 650.591 402.963 646.346 398.358 641.522C386.604 629.209 378.102 614.57 367.157 601.668L368.098 599.711Z"/>
	<path fill="#FDFDFC" transform="scale(0.5 0.5)" d="M348.235 97.4004L353.369 92.9133C363.688 84.1237 374.213 76.1652 386.192 69.75C397.988 63.4329 411.278 58.6917 424.115 55.0001C431.461 52.8875 438.955 50.7189 446.46 49.2719C476.994 43.3843 510.41 43.3168 541.316 45.9276C562.412 47.7097 583.776 52.3459 604 58.5225C614.367 61.6888 625.742 65.2103 634.962 71.0425C637.702 72.7753 640.059 75.3606 642.5 77.5035C644.915 79.6238 647.497 81.5584 649.583 84.0163C660.989 93.218 672.411 105.191 680.728 117.293C679.145 117.198 678.771 116.235 677.764 115.036C668.828 104.394 658.639 95.776 648.726 86.124C642.869 81.6787 636.298 77.1935 629.695 73.9332C620.497 69.3914 610.478 66.3194 600.735 63.2236C581.309 57.0512 561.516 52.2777 541.185 50.2622C522.306 48.3906 503.364 48.6477 484.436 49.0198C477.517 49.921 470.653 49.912 463.75 50.6109C461.215 50.8675 458.756 51.5637 456.25 51.9868C453.165 52.5077 449.994 52.5251 446.914 53.074C443.345 53.7102 439.688 55.0917 436.175 56.0482L405.355 66.019C397.922 68.725 390.227 71.4114 383.523 75.6828C381.269 76.9243 378.999 78.2642 376.649 79.3137C372.705 81.0752 367.962 81.3384 366.25 85.8637L365.459 85.8674C360.946 86.1383 351.489 98.5923 348.235 97.4004Z"/>
	<path fill="#EEEF20" transform="scale(0.5 0.5)" d="M733.423 395.25L734.67 395.324C736.999 399.07 738.017 404.647 738.455 409.001C739.068 415.092 738.469 421.49 737.502 427.5C734.191 448.091 724.434 468.871 711.425 485.131C710.567 485.949 709.786 486.491 708.75 487.065L715.519 407.024C718.475 404.461 721.963 402.953 725.25 400.906L733.423 395.25Z"/>
	<defs>
		<linearGradient id="gradient_5" gradientUnits="userSpaceOnUse" x1="590.68842" y1="772.57068" x2="739.66754" y2="642.42871">
			<stop offset="0" stop-color="#A5A7A6"/>
			<stop offset="1" stop-color="white"/>
		</linearGradient>
	</defs>
	<path fill="url(#gradient_5)" transform="scale(0.5 0.5)" d="M655.618 599.299L656.31 598.894C657.379 598.241 658.097 597.298 658.873 596.337C679.139 603.599 699.392 610.482 717.935 621.647C721.683 623.903 726.678 626.263 728.655 630.326C732.241 637.698 734.56 645.875 737.569 653.502L744.234 670.241C745.714 673.828 748.3 678.407 748.6 682.25C748.946 686.69 746.599 691.757 745.425 696L738.932 720.401C737.781 724.609 736.99 729.584 735.406 733.606L735.248 733.962L734.694 736.555C732.11 746.797 729.007 756.464 723.401 765.463C718.411 773.471 710.569 780.726 703.938 787.435L681.25 810.148C678.83 812.486 675.558 816.681 672.61 818.183C670.77 819.121 668.17 819.393 666.115 819.486C663.875 819.587 661.623 819.111 659.378 819.062L639.3 818.182C635.616 817.961 631.481 818.012 628.002 816.685C633.124 815.747 638.494 815.937 643.694 815.857L661.75 815.565C663.638 815.582 665.859 816.235 667.692 815.85C668.933 815.589 670.255 814.884 671.36 814.269C675.149 812.161 678.048 808.941 681.107 805.928L695.329 791.346L713.986 770.946C717.618 766.713 721.469 762.297 724.043 757.317C727.697 750.247 728.653 741.23 730.834 733.579C731.221 728.008 732.997 722.279 734.164 716.814L737.391 700.493C738.983 693.808 741.096 686.251 740.841 679.307C740.69 675.18 738.358 670.477 736.919 666.647C732.612 655.185 728.152 642.841 721.4 632.572C720.265 630.846 718.748 629.472 717.225 628.096C713.476 621.646 674.056 608.133 665.599 605.359L660.868 603.295L657.245 601.441L655.618 599.299Z"/>
	<defs>
		<linearGradient id="gradient_6" gradientUnits="userSpaceOnUse" x1="430.19397" y1="783.72986" x2="286.9726" y2="636.70319">
			<stop offset="0" stop-color="#CCCAC9"/>
			<stop offset="1" stop-color="white"/>
		</linearGradient>
	</defs>
	<path fill="url(#gradient_6)" transform="scale(0.5 0.5)" d="M336.304 802.474L312.628 782.572C309.325 779.748 305.174 776.938 302.479 773.569C300.688 771.329 300.008 768.373 299.165 765.682L295.223 753.477L279.36 705.162L275.118 689.345C274.662 687.617 273.325 683.749 273.595 682.015C273.886 680.14 275.939 676.991 276.681 675.126L285.985 651.655C288.69 644.499 291.372 635.986 295.253 629.408C298.097 624.585 303.766 622.666 308.468 620.153C320.92 613.496 333.639 608.026 346.948 603.34C352.547 601.369 358.438 599.079 364.22 597.75C365.715 597.406 366.131 597.415 367.441 598.212L368.098 599.711L367.157 601.668C365.182 603.335 363.5 604.44 361.129 605.498C347.308 610.236 334.018 614.787 320.622 620.707C315.35 623.037 307.439 625.889 303.882 630.604C297.335 637.293 293.121 648.468 289.425 656.97C286.117 664.581 282.545 672.176 280.249 680.168C279.565 682.546 280.258 685.24 280.759 687.595L283.933 700.672L296.569 743.178C299.283 751.418 301.845 760.381 306.237 767.884C308.788 772.243 312.706 775.679 316.351 779.127C322.82 785.248 329.612 791.242 336.849 796.446L349.558 806.067C353.846 809.406 358.367 814.292 363.729 815.887C365.317 816.359 367.257 816.201 368.922 816.409C376.552 817.361 383.862 816.762 391.503 816.762C392.88 816.762 394.299 816.111 395.381 817L395.25 818.652C393.862 818.792 393.029 818.365 391.75 817.898L391.009 818.291C388.568 819.498 384.432 819.402 381.718 819.705C375.526 820.395 365.948 822.82 360.055 820.595C356.436 819.229 353.459 816.553 350.449 814.212C345.494 810.358 340.889 806.871 336.309 802.52L336.304 802.474Z"/>
	<path fill="#FFFF3F" transform="scale(0.5 0.5)" d="M419.541 40.8034L432.445 37.7547L432.144 38.0673C431.056 39.1723 430.144 39.7439 428.75 40.4154C427.853 41.7988 427.879 41.7172 428.156 43.3444C429.015 44.4917 429.647 45.2393 430.848 46.0664C428.87 46.5549 426.646 46.899 424.745 47.5938C412.735 50.9757 400.256 54.839 388.912 60.0536C365.814 70.6708 345.398 87.7842 327.144 105.264C324.684 107.619 321.819 109.494 319.338 111.821C314.46 116.394 309.761 122.517 306.475 128.357C302.392 135.614 300.294 144.182 296.105 151.273C296.334 147.446 297.502 138.797 294.592 135.939C294.16 135.515 294.193 135.565 293.75 135.318C290.314 139.377 290.321 144.517 289.808 149.549C289.297 154.557 288.652 159.447 289.029 164.5C289.245 167.391 289.924 170.284 290.673 173.078L290.262 172.904C289.99 172.715 289.832 172.309 289.505 172.263C289.37 172.243 288.224 173.037 287.943 173.106C286.43 173.477 283 172.699 281.518 172.304C280.333 167.82 279.252 163.446 279.069 158.783C278.393 141.49 285.724 124.437 292.11 108.818C294.494 115.191 296.49 121.757 299.93 127.649C305.322 117.434 312.172 106.027 319.828 97.3317C321.805 95.0864 323.488 94.3545 325.943 92.8763C328.064 91.5992 330.269 89.615 332.209 88.0522C334.054 86.5654 335.211 84.0606 337.033 82.8411C339.074 81.4753 341.786 81.3524 343.886 79.9135C345.996 78.4675 347.874 76.6779 349.964 75.1878L372.034 60.1776C375.5 57.8838 378.918 55.2325 382.662 53.4108C386.431 51.5775 390.561 50.4643 394.5 49.0651L419.541 40.8034Z"/>
	<defs>
		<linearGradient id="gradient_7" gradientUnits="userSpaceOnUse" x1="609.72766" y1="255.96049" x2="568.80725" y2="13.98571">
			<stop offset="0" stop-color="#DEEB00"/>
			<stop offset="1" stop-color="#FFFD8E"/>
		</linearGradient>
	</defs>
	<path fill="url(#gradient_7)" transform="scale(0.5 0.5)" d="M432.445 37.7547L450.583 34.2233C481.952 29.6444 515.619 29.819 547 34.3872C567.673 37.3965 587.732 42.3529 607.817 47.9965L630.59 55.2266C634.788 56.6106 639.644 57.6222 643.388 60.0341C647.334 62.5767 650.755 66.8298 654.25 70.0013C660.898 76.0342 668.675 81.8613 674.345 88.8743C678.509 92.3219 682.177 96.85 685.745 100.912C698.358 115.274 708.99 130.735 719.562 146.619C727.923 159.182 736.277 170.932 741.948 185.104C743.067 187.9 743.511 190.851 744.25 193.755C745.673 199.341 747.407 204.866 747.934 210.652C748.573 217.658 746.625 225.867 745.997 232.919L744.438 233.986L744.062 219.25C743.586 214.778 741.542 210.325 740.206 206.033C737.634 197.775 735.558 188.153 731.51 180.559C729.631 177.036 726.492 174.317 724.411 170.914L715.167 154.745L701.75 134.99C696.852 127.871 692.323 120.571 686.926 113.797C680.784 106.088 673.582 99.5674 667.168 92.1835L666.875 91.8412C664.338 89.7603 662.117 87.052 659.75 84.755L648.43 74.25C645.093 71.1066 641.895 67.9129 637.846 65.6816C631.236 62.039 623.71 59.7001 616.616 57.1449C574.81 42.0867 530.518 37.0649 486.29 38.5789C467.543 39.2207 448.913 40.8158 430.848 46.0664C429.647 45.2393 429.015 44.4917 428.156 43.3444C427.879 41.7172 427.853 41.7988 428.75 40.4154C430.144 39.7439 431.056 39.1723 432.144 38.0673L432.445 37.7547Z"/>
	<path fill="#FFFF3F" transform="scale(0.5 0.5)" d="M507.312 529.602C512.691 529.056 518.157 530.324 523.383 531.484L541.706 535.621C551.2 537.635 561.033 539.285 570.679 540.365C572.64 542.206 573.928 545.226 575.442 547.5L589.589 569.019C585.755 571.613 581.527 573.21 577.382 575.21C572.153 577.733 567.1 580.448 561.716 582.656L554.804 558.735C554.376 557.369 553.574 554.147 552.577 553.138C551.11 551.655 547.686 550.777 545.75 549.961L526.256 542.291C522.545 540.817 518.941 539.055 515.409 537.196C512.478 539.78 517.933 551.978 519.501 555.136C520.315 556.774 522.723 560.244 522.441 561.801L520.25 561.408C517.531 560.45 514.588 559.318 511.699 559.119C507.628 558.839 502.727 560.727 498.859 561.868C503.533 553.737 506.29 546.544 507.237 537.19C502.694 539.655 497.885 541.336 493.143 543.352C486.988 545.968 481.014 548.719 474.697 550.959C472.962 553.921 472.173 557.502 471.223 560.787C469.076 568.212 467.505 576.109 464.433 583.197L450.934 575.584C446.715 573.263 442.491 571.273 438.551 568.472C440.636 562.7 443.706 557.531 446.716 552.215C448.452 549.15 449.933 545.906 451.785 542.913C452.266 542.135 453.049 540.552 453.98 540.24C456.711 539.325 459.999 539.019 462.837 538.541L480.414 535.679C489.522 534.103 498.326 531.7 507.312 529.602Z"/>
	<path fill="#536859" transform="scale(0.5 0.5)" d="M638.864 635.05L646.088 627.091C647.978 624.801 649.626 622.246 652.245 620.75L652.486 622.035C643.952 636.278 638.256 651.006 632.079 666.266C628.647 674.744 624.428 682.109 623.598 691.404C612.719 693.275 604.31 698.641 596.517 706.207C592.882 709.735 589.068 713.816 584.82 716.592C581.966 718.457 578.59 719.461 575.571 721.028C572.359 722.695 569.369 724.983 566.378 727.023C560.979 730.705 556.865 733.36 552.785 738.56L523.766 737.966C521.208 737.909 516.852 738.408 514.521 737.501L514.856 712.5C514.938 709.206 514.534 705.691 515.01 702.444L515.822 702.058C516.754 701.794 517.514 701.976 518.446 701.518L518.901 701.25L519.409 701.357C520.931 701.526 522.814 700.956 524.314 700.62C529.896 699.371 534.816 697.228 540.151 695.286L572.2 683.789C577.269 681.696 582.545 679.002 587.122 676.137C590.767 673.856 595.205 672.388 598.999 670.222C604.657 666.99 609.812 662.881 615.165 659.182C616.502 658.258 617.979 657.699 619.345 656.75C618.892 656.125 618.757 655.896 618.563 655.119L620.75 655.009C627.219 648.617 633.362 642.314 638.864 635.05Z"/>
	<path fill="#4B5F5A" transform="scale(0.5 0.5)" d="M379.702 630.978L380.5 630.5L380.858 630.25C384.352 633.683 386.547 638.133 389.892 641.607C396.242 648.202 403.467 654.404 410.581 660.165C413.769 662.746 416.83 665.638 420.25 667.908C430.236 674.534 441.93 679.361 453.011 683.75C458.415 685.89 463.921 688.307 469.536 689.821C477.218 693.364 486.428 696.735 494.59 698.829C499.884 700.187 505.897 701.036 510.971 702.946L511.261 737.608L466.371 737.471C462.352 737.534 457.065 736.849 453.25 737.942C449.268 736.582 445.097 735.261 441.322 733.402C438.457 731.991 436.731 729.317 433.565 728.516C428.884 725.851 425.692 720.998 421.125 718.643C416.939 715.299 418.573 708.399 416.045 704.282C415.644 703.628 414.386 702.74 413.762 702.181L406.682 696.09C405.742 694.023 404.199 692.258 403.37 690.135C401.816 686.162 401.06 681.933 399.414 677.948C398.542 674.936 396.828 671.818 395.604 668.913L383.693 642.36C383.56 640.501 383.621 638.145 382.672 636.501C381.757 634.915 380.689 633.351 379.979 631.661L379.702 630.978Z"/>
	<defs>
		<linearGradient id="gradient_8" gradientUnits="userSpaceOnUse" x1="335.08017" y1="607.96509" x2="352.96423" y2="788.75623">
			<stop offset="0" stop-color="#AD9F33"/>
			<stop offset="1" stop-color="#042D5B"/>
		</linearGradient>
	</defs>
	<path fill="url(#gradient_8)" transform="scale(0.5 0.5)" d="M303.882 630.604C307.439 625.889 315.35 623.037 320.622 620.707C334.018 614.787 347.308 610.236 361.129 605.498C361.631 606.966 362.697 610.692 363.83 611.612L378.185 638.844C380.79 642.654 382.425 647.557 384.362 651.764L391.68 667.118L395.117 675.79C395.324 676.295 395.77 677.733 396.114 678.026L399.07 687.01C399.557 688.394 400.377 690.009 400.377 691.484L397.75 689.59C391.168 685.341 383.663 682.756 376.214 680.519C359.952 675.636 342.123 672.235 325.242 675.977C318.263 677.524 311.208 679.965 304.364 682.095C301.883 682.867 298.487 683.506 297.039 685.75L298.457 686.504C300.662 687.881 300.715 688.487 301.578 690.997L304.002 698.748C304.456 700.425 304.902 702.283 305.675 703.832C306.188 704.859 306.474 705.906 306.824 706.993C307.452 708.947 308.721 710.705 309.495 712.623C310.499 715.106 312.674 719.801 314.839 721.404C318.23 726.477 319.571 732.714 321.938 738.278C324.407 744.083 327.743 749.912 330.777 755.456C333.441 760.324 337.314 764.234 340.566 768.67C341.785 770.333 342.346 772.33 343.332 774.127C344.947 777.068 346.994 779.867 348.365 782.914L348.063 783.54L349.641 786.268L349.875 786.747C350.265 787.511 350.52 788.169 350.75 789L350.5 789.255C347.851 787.372 345.859 783.004 342.927 781.781C338.771 780.047 335.07 775.329 331.922 772.165C322.25 762.442 312.738 751.652 306.125 739.542C302.84 733.527 300.481 726.966 297.318 720.851L287.607 691.151C286.605 687.186 285.126 681.974 285.423 677.906C285.616 675.253 287.076 672.298 288.013 669.825C290.367 663.617 292.901 657.055 296.326 651.349C298.287 645.293 300.712 640.093 303.673 634.492C304.003 633.057 303.999 632.047 303.882 630.604Z"/>
	<defs>
		<linearGradient id="gradient_9" gradientUnits="userSpaceOnUse" x1="624.94763" y1="818.51349" x2="590.62225" y2="617.25928">
			<stop offset="0" stop-color="#01223A"/>
			<stop offset="1" stop-color="#A7A13C"/>
		</linearGradient>
	</defs>
	<path fill="url(#gradient_9)" transform="scale(0.5 0.5)" d="M665.599 605.359C674.056 608.133 713.476 621.646 717.225 628.096L723.404 643.585C724.99 646.778 726.675 649.923 727.707 653.349C729.255 656.505 730.293 659.952 731.445 663.268C732.888 667.421 734.525 671.788 734.919 676.197C735.402 681.613 734.303 686.991 733.2 692.25L725.531 722.874L721.688 739.234C720.884 743.388 720.575 747.98 719.344 752C718.92 753.385 718.153 755.654 717 756.519L716.393 756L715.669 755.56L715.687 756.108C715.756 761.209 710.696 766.201 707.75 770.083C701.701 778.055 695.494 786.238 688.361 793.303L669.134 811.563C659.072 809.937 648.929 809.224 638.912 807.209L593.578 795.824L565.074 787.7L543.05 779.775C523.231 773.144 503.36 767.012 484.558 757.66L479.545 754.31C486.545 755.119 491.339 757.691 497.731 760.131L510.25 764.627C514.739 766.403 519.174 768.435 523.75 769.987C528.667 771.656 533.886 772.529 538.855 774.053C542.259 775.096 545.468 776.754 548.864 777.842C550.937 778.507 553.048 778.706 555.136 779.25L577.906 786.21L605.666 793.087L628.867 798.25C631.555 798.831 634.292 799.783 637.019 800.088C639.796 800.397 642.701 801.677 645.528 802.183C649.627 802.917 653.835 803.004 657.965 803.565L659.07 803.297L658.908 802.609L658.433 801.75C662.992 797.698 665.333 792.025 668.057 786.72C672.936 777.221 677.803 767.769 681.829 757.868L690.365 736.441C691.997 732.664 693.146 729.172 695.435 725.672C699.221 719.885 704.229 714.304 709.734 710.085C712.31 708.111 715.412 706.985 718.008 705.09C721.206 702.755 723.657 699.242 725.511 695.791C725.597 691.765 725.932 687.942 725.067 683.968C726.654 683.983 727.207 684.204 728.518 683.25L728.186 682.314C724.765 679.403 720.818 678.304 716.471 677.569C707.698 676.086 697.266 675.395 688.391 676.059C680.685 676.636 673.658 678.624 666.235 680.401C662.778 681.229 659.205 681.545 655.759 682.431C653.39 683.039 651.179 684.071 648.851 684.796C645.987 685.688 642.118 686.069 639.698 687.932C637.336 689.749 630.797 690.175 627.649 690.316L627.745 688L628.245 687.25C628.215 686.485 628.177 685.894 628.425 685.156L628.665 684.5C630.39 678.401 632.896 672.978 635.292 667.151L641.613 651.612L645.661 641.899L654.435 622.682C657.277 617.097 658.976 610.887 662.132 605.559C663.377 605.226 664.332 605.304 665.599 605.359Z"/>
	<path fill="#536859" transform="scale(0.5 0.5)" d="M725.511 695.791C725.681 701.097 725.362 706.042 724.253 711.253C722.771 718.208 719.896 725.058 717.127 731.581C715.321 735.833 713.994 740.29 712.105 744.507C710.818 747.382 708.918 749.767 707.418 752.5C703.948 758.819 700.715 764.94 695.721 770.273L688.479 777.438C683.325 783.067 678.175 789.702 672.369 794.598C670.241 796.392 667.994 798.171 665.702 799.75C663.88 801.006 660.791 802.12 659.75 803.999C659.136 803.891 658.523 803.853 657.965 803.565L659.07 803.297L658.908 802.609L658.433 801.75C662.992 797.698 665.333 792.025 668.057 786.72C672.936 777.221 677.803 767.769 681.829 757.868L690.365 736.441C691.997 732.664 693.146 729.172 695.435 725.672C699.221 719.885 704.229 714.304 709.734 710.085C712.31 708.111 715.412 706.985 718.008 705.09C721.206 702.755 723.657 699.242 725.511 695.791Z"/>
	<path fill="#536859" transform="scale(0.5 0.5)" d="M393.235 902.775L405.92 869.767C407.183 866.981 409.906 856.23 411.946 855.1C412.5 855.891 412.497 855.953 412.599 856.998C413.384 857.352 414.02 857.468 414.858 857.583C419.527 858.224 423.957 859.821 428.5 860.98L455.719 867.068C474.84 870.375 494.898 870.937 514.274 870.568C519.668 870.465 525.167 870.686 530.543 870.275C538.618 869.658 546.502 868.26 554.5 867.071L583.415 862.205L601.329 858.418C603.879 857.917 608.607 857.557 610.547 855.874C611.098 855.397 611.095 854.565 611.25 853.887C613.029 854.757 621.452 875.815 622.567 879C622.995 880.225 623.239 881.601 623.838 882.75C624.686 884.376 625.906 885.487 626.648 887.268L632.397 903.011C630.053 906.987 625.628 908.444 622.011 910.928C617.474 914.043 612.963 917.709 608.078 920.219C604.75 921.93 601.052 922.689 597.639 924.171C595.097 925.274 592.734 926.941 590.461 928.507C585.854 928.523 580.974 928.869 576.418 928.161L574.34 926.86C568.699 921.225 564.533 914.864 559.461 908.813C554.89 903.36 548.893 898.038 545.381 891.927L577.039 876.616L536.767 889.095C535.183 889.593 533.395 889.408 531.75 889.407L521.458 889.484L505.08 889.566C500.967 889.635 496.569 890.01 492.5 889.432C487.983 888.79 483.37 886.363 479.068 884.835L461.681 879.277C457.053 877.558 452.711 875.148 448.298 872.952C449.831 874.995 452.572 876.378 454.703 877.759L470.791 887.32C472.089 888.044 477.633 890.683 477.952 891.81L450.426 925.823C449.372 926.754 447.715 928.617 446.446 929.15C445.166 929.688 441.963 929.166 440.531 929.08L434.99 928.55C427.241 922.41 417.551 918.079 409.119 912.946C404.727 910.273 401.176 906.679 396.387 904.588C395.138 904.043 394.324 903.586 393.235 902.775Z"/>
	<path fill="#39BD5D" transform="scale(0.5 0.5)" d="M663.86 685.852C681.218 679.066 699.957 678.048 718.25 681.016C720.987 681.46 722.87 682.231 725.067 683.968C725.932 687.942 725.597 691.765 725.511 695.791C723.657 699.242 721.206 702.755 718.008 705.09C715.412 706.985 712.31 708.111 709.734 710.085C704.229 714.304 699.221 719.885 695.435 725.672C693.146 729.172 691.997 732.664 690.365 736.441L681.829 757.868C677.803 767.769 672.936 777.221 668.057 786.72C665.333 792.025 662.992 797.698 658.433 801.75L658.908 802.609L659.07 803.297L657.965 803.565C653.835 803.004 649.627 802.917 645.528 802.183C642.701 801.677 639.796 800.397 637.019 800.088C634.292 799.783 631.555 798.831 628.867 798.25L605.666 793.087L577.906 786.21L555.136 779.25C553.048 778.706 550.937 778.507 548.864 777.842C545.468 776.754 542.259 775.096 538.855 774.053C533.886 772.529 528.667 771.656 523.75 769.987C519.174 768.435 514.739 766.403 510.25 764.627L497.731 760.131C491.339 757.691 486.545 755.119 479.545 754.31L471.534 752.294C473.005 751.269 477.131 752.437 479.022 752.493C483.812 752.636 488.921 752.07 493.693 751.647L521.295 748.86C526.018 748.357 531.854 747.206 536.534 747.658L552.092 744.619L618.99 741.417L653.944 739.96L676.314 738.948C671.091 737.108 664.428 736.909 658.917 737.075L643.539 735.959C648.779 732.125 653.241 728.441 656.426 722.666C658.771 718.414 660.401 712.107 658.879 707.338C656.882 701.079 651.141 696.993 645.673 693.969C644.813 693.698 644.324 693.54 643.584 693C647.051 689.113 658.668 687.397 663.86 685.852Z"/>
	<path fill="#FDFDFC" transform="scale(0.5 0.5)" d="M667.183 685.956C674.62 684.68 682.486 684.348 690.015 684.59C692.586 684.673 695.051 685.19 697.595 685.25L697.25 685.755C685.974 685.357 675.953 687.032 664.944 689.321L665.06 687.764L667.183 685.956Z"/>
	<path fill="#9AF695" transform="scale(0.5 0.5)" d="M589.254 751.323C586.071 752.125 583.319 753.751 580.265 754.882C576.847 756.148 573.176 756.727 569.596 757.344C574.097 752.44 577.332 750.473 583.666 748.442L582.882 749.757L583.755 750.75C585.662 750.701 587.481 750.49 589.254 751.323Z"/>
	<defs>
		<linearGradient id="gradient_10" gradientUnits="userSpaceOnUse" x1="658.38654" y1="684.76599" x2="652.80945" y2="695.30872">
			<stop offset="0" stop-color="#EBFFEB"/>
			<stop offset="1" stop-color="#F8FFFC"/>
		</linearGradient>
	</defs>
	<path fill="url(#gradient_10)" transform="scale(0.5 0.5)" d="M663.86 685.852L667.183 685.956L665.06 687.764L664.944 689.321C658.237 691.239 652.698 693.508 645.673 693.969C644.813 693.698 644.324 693.54 643.584 693C647.051 689.113 658.668 687.397 663.86 685.852Z"/>
	<path fill="#FDFDFC" transform="scale(0.5 0.5)" d="M618.99 741.417L631 741.642L631.505 742C630.787 742.733 631 742.715 629.901 742.883C628.879 743.039 628.074 743.402 627.136 743.815C622.849 745.7 617.52 745.614 612.906 746.403C605.064 747.746 596.926 749.237 589.254 751.323C587.481 750.49 585.662 750.701 583.755 750.75L582.882 749.757L583.666 748.442C584.624 748.24 584.212 748.468 584.897 747.75L570.25 748.486C565.894 748.593 560.98 747.987 556.708 748.652C552.307 749.338 547.459 748.616 542.982 748.504C540.938 748.453 538.301 748.738 536.534 747.658L552.092 744.619L618.99 741.417Z"/>
	<path fill="#39BD5D" transform="scale(0.5 0.5)" d="M298.457 686.504C309.167 683.325 320.489 679.378 331.645 678.27C339.952 677.445 348.32 678.329 356.516 679.691C364.732 681.709 372.504 684.36 380.399 687.376C387.986 690.275 396.699 693.865 402.573 699.635C405.52 706.33 408.715 713.177 410.696 720.222C411.909 724.535 412.443 728.996 413.274 733.389C412.366 734.896 411.581 736.53 409.75 736.991C407.004 737.683 403.892 737.233 401.095 737.068C396.444 736.792 391.789 736.432 387.126 736.584C380.386 736.802 373.921 738.143 367.25 738.841L367.086 739.298L385.204 740.238L385.317 740.39C390.788 740.568 396.077 741.274 401.5 741.91C402.261 741.999 404.933 741.979 405.38 742.298C416.277 743.267 427.122 744.572 437.729 747.342C441.479 748.321 445.207 749.153 448.625 751.041C452.325 751.862 456.531 752.287 460.063 753.572C465.089 755.399 469.814 758.087 474.941 759.627C476.159 759.992 477.336 761.188 478.354 761.978L485.963 767.684C491.354 771.435 497.133 775.387 502.971 778.397C500.614 779.804 497.015 779.78 494.314 780.35L465.053 786.023L431.825 793.504C423.353 795.243 414.747 796.112 406.306 798.059C404.495 798.988 366.155 804.778 363.653 804.41C360.656 803.969 358.036 798.105 356.271 795.762C355.55 794.804 354.492 794.178 353.809 793.25C351.747 790.445 351.048 786.238 348.767 783.397L348.365 782.914C346.994 779.867 344.947 777.068 343.332 774.127C342.346 772.33 341.785 770.333 340.566 768.67C337.314 764.234 333.441 760.324 330.777 755.456C327.743 749.912 324.407 744.083 321.938 738.278C319.571 732.714 318.23 726.477 314.839 721.404C312.674 719.801 310.499 715.106 309.495 712.623C308.721 710.705 307.452 708.947 306.824 706.993C306.474 705.906 306.188 704.859 305.675 703.832C304.902 702.283 304.456 700.425 304.002 698.748L301.578 690.997C300.715 688.487 300.662 687.881 298.457 686.504Z"/>
	<path fill="#B8DED9" transform="scale(0.5 0.5)" d="M385.317 740.39C390.788 740.568 396.077 741.274 401.5 741.91C402.261 741.999 404.933 741.979 405.38 742.298C405.22 743.538 404.996 744.676 405.319 745.908L385.673 742.328L385.25 742.266L384.75 741.313L385.317 740.39Z"/>
	<path fill="#FDFDFC" transform="scale(0.5 0.5)" d="M405.38 742.298C416.277 743.267 427.122 744.572 437.729 747.342C441.479 748.321 445.207 749.153 448.625 751.041C448.633 752.305 448.927 752.453 448 753.4L425.238 749.105C418.919 748.13 411.221 748.133 405.319 745.908C404.996 744.676 405.22 743.538 405.38 742.298Z"/>
	<path fill="#536859" transform="scale(0.5 0.5)" d="M298.457 686.504C309.167 683.325 320.489 679.378 331.645 678.27C339.952 677.445 348.32 678.329 356.516 679.691L354.083 680.145C356.119 680.691 358.464 680.56 360.25 681.755C358.825 681.753 357.456 682.051 356.25 681.255C354.931 681.19 353.77 681.164 352.459 681.277C349.866 681.5 347.109 680.98 344.5 680.921C333.53 680.673 321.644 680.759 313.25 689.096C309.446 692.874 307.461 698.406 306.984 703.644L306.922 704.252C306.958 705.753 308.184 707.857 308.87 709.227C310.845 713.176 313.472 717.224 314.839 721.404C312.674 719.801 310.499 715.106 309.495 712.623C308.721 710.705 307.452 708.947 306.824 706.993C306.474 705.906 306.188 704.859 305.675 703.832C304.902 702.283 304.456 700.425 304.002 698.748L301.578 690.997C300.715 688.487 300.662 687.881 298.457 686.504Z"/>
	<path fill="#4B5F5A" transform="scale(0.5 0.5)" d="M484.436 49.0198C503.364 48.6477 522.306 48.3906 541.185 50.2622C561.516 52.2777 581.309 57.0512 600.735 63.2236C610.478 66.3194 620.497 69.3914 629.695 73.9332C636.298 77.1935 642.869 81.6787 648.726 86.124C658.639 95.776 668.828 104.394 677.764 115.036C678.771 116.235 679.145 117.198 680.728 117.293C682.808 119.069 684.488 121.7 686.175 123.861C685.15 127.48 682.254 129.779 680.934 133.17C679.987 134.759 679.047 136.482 677.829 137.879C676.548 139.346 675.128 139.727 673.25 139.907C670.089 138.252 667.493 133.704 665.274 130.899L653.058 115.75C650.57 112.657 648.496 109.336 645.907 106.292L644.867 106.834C646.99 109.271 649.383 111.765 651.17 114.458C652.631 116.66 653.457 119.204 654.857 121.435C656.543 124.122 658.63 126.557 660.284 129.266C663.045 133.784 664.874 138.766 666.979 143.596C668.459 146.992 670.707 150.496 670.483 154.3L670.449 154.75L669.5 155.179C666.579 153.737 664.232 150.148 662.44 147.5C657.333 139.954 653.993 132.537 650.177 124.354C648.28 120.285 646.024 116.455 644.425 112.241L643.822 113.115C646.671 119.536 648.19 126.692 645.619 133.348L644.282 136.572L587.75 81.8228L587.518 82.5C596.553 93.4614 605.582 104.411 613.59 116.159C618.345 123.134 621.836 131.414 627.389 137.646L627.083 138.726C618.235 134.377 609.782 129.14 600.75 125.196C597.776 123.898 594.665 123.174 591.59 122.19C589.77 121.607 588.127 120.586 586.302 120.018C582.723 118.905 578.949 118.166 575.302 117.299C572.655 116.223 569.646 115.808 566.863 115.171C558.08 113.162 548.286 111.863 539.25 112.104C536.57 112.176 533.912 112.652 531.239 112.825C521.651 113.444 513.447 114.355 504.245 117.25C501.404 118.144 498.457 118.691 495.731 119.93C494.991 120.267 495.214 120.172 494.55 120.824C501.65 119.207 508.74 117.252 516.021 116.624C525.66 115.794 534.448 116.847 543.931 118.306C545.925 118.613 548.017 118.475 549.979 118.863C561.593 121.159 572.985 125.705 583.597 130.866C587.748 132.885 591.984 134.846 595.886 137.325C597.619 138.425 599.064 139.815 600.75 140.948C602.678 142.244 605.039 142.984 606.888 144.388C608.963 145.964 610.826 148.131 612.654 149.995C602.135 149.372 591.54 148.371 581 149.114C571.999 149.748 562.072 152.172 553.5 154.861C549.787 156.025 545.996 156.809 542.453 158.478C540.545 159.377 538.867 160.639 537 161.597C534.392 162.935 531.684 163.765 529.162 165.348C526.223 167.195 523.711 169.932 520.515 171.244C517.75 172.38 515.34 175.184 513 177.03L491.442 195.322C489.28 197.228 487.395 199.445 485.181 201.291C482.417 203.595 479.314 205.463 476.501 207.702C475.059 208.849 471.649 212.209 469.9 212.515C467.026 213.018 462.145 211.255 459.302 210.56C455.871 209.722 451.84 206.769 448.551 205.181C446.598 204.238 444.921 204.137 443 202.906L441.87 202.3C437.962 200.185 434.033 196.531 430.522 193.745C430.651 194.726 433.888 197.836 434.75 198.5L436 199.25C436.917 199.974 437.418 200.662 438.491 201.252L438.774 202.273C434.271 199.205 430.304 195.37 426.341 191.652C415.27 181.265 406.073 169.984 397.34 157.576L396.755 157.75C402.461 168.165 410.581 178.38 418.12 187.576C417.096 189.948 415.965 192.525 413.438 193.624C408.483 195.78 401.779 193.752 396.892 192.217C391.99 187.162 387.654 180.634 383.926 174.692C378.897 166.678 374.197 158.598 370.569 149.827C368.447 144.695 366.859 139.034 365.247 133.706C364.291 130.543 363.539 127.024 363.053 123.75C362.837 122.296 363.151 121.202 362.228 120.002L362.318 124.193C362.634 134.713 364.543 146.685 368.362 156.497L374.864 171.434C374.968 173.378 375.031 174.953 374.356 176.814C372.049 183.175 366.408 189.449 360.332 192.291L359.592 192.629C357.731 193.491 356.206 193.962 354.139 194.053C351.204 194.181 344.219 194.316 342.029 192.25C341.763 188.95 343.437 185.644 342.865 182.428C341.96 177.338 339.226 172.057 337.781 166.997C334.956 157.102 333.979 148.062 333.614 137.776C333.297 128.851 333.416 120.916 335.815 112.25C337.351 106.698 340.636 103.727 344.393 99.5986C345.651 98.7159 346.767 97.9126 348.235 97.4004C351.489 98.5923 360.946 86.1383 365.459 85.8674L366.25 85.8637C367.962 81.3384 372.705 81.0752 376.649 79.3137C378.999 78.2642 381.269 76.9243 383.523 75.6828C390.227 71.4114 397.922 68.725 405.355 66.019L436.175 56.0482C439.688 55.0917 443.345 53.7102 446.914 53.074C449.994 52.5251 453.165 52.5077 456.25 51.9868C458.756 51.5637 461.215 50.8675 463.75 50.6109C470.653 49.912 477.517 49.921 484.436 49.0198Z"/>
	<path fill="#798D56" transform="scale(0.5 0.5)" d="M383.523 75.6828C390.227 71.4114 397.922 68.725 405.355 66.019L436.175 56.0482C439.688 55.0917 443.345 53.7102 446.914 53.074C449.994 52.5251 453.165 52.5077 456.25 51.9868C458.756 51.5637 461.215 50.8675 463.75 50.6109C470.653 49.912 477.517 49.921 484.436 49.0198C486.925 54.9321 491.477 63.7347 490.223 70.1716L490.101 70.8362C489.065 76.0477 486.3 80.9203 485.155 86.2716C471.474 84.296 456.895 82.3964 443.218 85.7163C439.587 86.5975 436.272 88.0966 432.743 89.2539C428.405 90.6766 423.992 91.8336 419.869 93.8274L419.248 94.1204C407.601 99.7232 396.437 109.215 388.216 119.13C388.98 117.301 390.143 115.305 390.596 113.389C391.335 110.258 391.227 106.595 391.581 103.371C388.807 105.169 387.533 107.464 385.423 109.874C386.412 103.2 384.892 97.3665 384.509 90.75C384.228 85.8864 384.656 80.4096 383.523 75.6828Z"/>
	<defs>
		<linearGradient id="gradient_11" gradientUnits="userSpaceOnUse" x1="103.92384" y1="361.88281" x2="529.56592" y2="753.98096">
			<stop offset="0" stop-color="#F0FD00"/>
			<stop offset="1" stop-color="#A5AF16"/>
		</linearGradient>
	</defs>
	<path fill="url(#gradient_11)" transform="scale(0.5 0.5)" d="M220.318 797.465C216.997 792.75 214.909 787.448 211.334 782.797C202.774 771.658 192.118 763.17 182.546 753.031L283.434 752.391C279.533 747.882 275.073 743.738 270.911 739.464C262.419 730.745 253.848 721.82 246.11 712.413C238.132 702.714 230.272 692.859 223.37 682.352C194.475 638.365 176.789 587.967 169.642 535.958C166.325 511.818 166.186 486.896 168.205 462.661C170.091 440.026 174.047 416.811 181.727 395.377C183.032 391.733 183.467 386.158 185.778 383.19C186.309 382.509 186.428 382.567 186.584 381.848C188.017 375.23 190.601 369.206 193.108 362.923C205.868 330.958 224.937 301.765 246.311 274.935L260.969 257.973C262.735 255.994 265.968 253.265 267.111 251.005C267.898 249.449 267.862 245.735 268.471 243.75C269.686 239.783 271.39 235.963 272.769 232.051L277.276 218.456C277.493 217.862 277.849 216.457 278.25 216.016C278.531 215.706 280.149 215.154 280.25 214.897C280.561 214.107 279.592 209.389 279.457 208.219L276.997 182.277C276.851 180.495 276.109 176.569 276.671 175.002C276.861 174.475 277.232 174.032 277.513 173.547C278.833 172.74 280.026 172.555 281.518 172.304C283 172.699 286.43 173.477 287.943 173.106C288.224 173.037 289.37 172.243 289.505 172.263C289.832 172.309 289.99 172.715 290.262 172.904L290.673 173.078C291.826 177.118 293.023 180.981 294.919 184.75C291.345 183.806 290.734 178.887 287.45 179.895C283.802 184.247 288.423 213.359 287.175 221.476C286.875 223.429 286.903 225.06 285.5 226.516C284.328 226.446 283.613 226.461 282.648 225.75C281.007 227.613 273.26 250.247 273.36 252.446L273.529 253.75C274.947 263.497 278.588 272.983 280.76 282.603L291.348 337.656C294.022 351.863 297.623 366.18 298.707 380.623L288.018 373.899C286.056 372.693 283.501 371.02 281.217 370.588L274.419 383.623C269.308 394.705 266.492 407.78 267.633 420C268.048 424.445 269.125 428.77 270.149 433.102C271.151 437.347 271.689 441.869 273.154 445.984C278.157 460.031 284.376 473.192 292.121 485.92C294.654 490.084 296.986 494.456 300.573 497.819L312.599 548.915C314.273 555.133 315.346 561.192 318.267 567.006C321.679 573.8 327.894 580.944 332.88 586.693C336.455 590.814 339.329 595.161 343.984 598.142L332.081 602.16C321.246 606.398 310.604 612.362 300.5 618.068C298.051 619.451 294.842 620.287 292.714 622.056C291.633 622.955 290.831 624.378 290.199 625.61L267.759 681.548C266.925 683.509 268.563 687.539 269.02 689.569C273.923 711.353 282.453 731.809 289.095 753.028L292.719 766.274C293.152 767.874 293.336 769.711 294.031 771.216C295.211 773.768 297.872 777.269 299.856 779.25C301.528 780.921 303.808 782.029 305.582 783.644L333.343 807.671L351.002 822.355C353.495 824.327 355.76 826.493 358.481 828.164L388.073 825.173L396.045 823.95C396.749 823.833 398.622 823.289 399.25 823.4C399.583 823.458 399.863 823.687 400.169 823.831L400.67 824.686C403.49 828.096 404.658 832.434 407.618 835.869C405.498 840.864 401.956 846.134 404.042 851.622C404.63 853.167 405.628 854.179 406.79 855.313L401.672 869.03L399.068 876.436C397.702 881.147 395.208 885.769 393.343 890.325L388.63 901.952C387.362 905.283 385.984 911.118 383.236 913.33L382.587 913.481C380.562 909.983 372.897 906.71 369.447 904.693L324.438 879.986L268.045 853.154C253.389 846.3 239.098 840.013 225.25 831.541C220.853 828.851 217.205 826.831 213.608 823.08C216.877 817.701 219.577 811.478 221.551 805.5C221.841 804.621 222.734 802.284 222.644 801.497C222.556 800.734 220.749 798.301 220.318 797.465Z"/>
	<path fill="#9BA52F" transform="scale(0.5 0.5)" d="M400.67 824.686C403.49 828.096 404.658 832.434 407.618 835.869C405.498 840.864 401.956 846.134 404.042 851.622C404.63 853.167 405.628 854.179 406.79 855.313L401.672 869.03L401.304 867.502L401.755 866.25C402.246 864.41 402.995 862.86 403.068 860.925L403.283 859.655C404.106 857.012 404.618 856.137 403.516 853.388C403.198 852.595 403.032 851.8 402.755 851C402.335 849.788 402.407 850.592 402.382 849.393L402.377 848.5C402.307 846.967 402.263 846.205 402.752 844.737L403.16 843.408L403.255 843C403.91 842.338 403.684 842.711 403.987 841.812C404.347 840.742 404.128 841.239 404.637 840.22L406.151 836.688L406.5 836C404.565 833.858 403.287 831.44 402.078 828.837L401.663 827.837C401.14 826.949 400.846 826.667 400.745 825.605L400.67 824.686Z"/>
	<defs>
		<linearGradient id="gradient_12" gradientUnits="userSpaceOnUse" x1="910.04437" y1="389.38062" x2="522.34955" y2="798.62317">
			<stop offset="0" stop-color="#EDF900"/>
			<stop offset="1" stop-color="#A2AF0F"/>
		</linearGradient>
	</defs>
	<path fill="url(#gradient_12)" transform="scale(0.5 0.5)" d="M744.438 233.986L745.997 232.919C745.824 235.201 744.624 241.98 745.373 243.837C745.587 244.369 746.535 245.297 746.908 245.728C750.693 250.088 755.713 253.689 759.835 257.771C767.1 264.964 774.422 273.452 780.799 281.477C796.599 301.359 810.859 322.731 822.225 345.463C832.111 365.236 839.701 386.885 845.24 408.228C854.169 442.638 858.89 477.153 857.219 512.772C856.39 530.431 853.507 547.872 849.74 565.123C847.63 574.783 845.694 584.376 842.898 593.89C838.355 609.352 832.474 623.909 825.753 638.519C817.026 657.487 807.118 675.649 795.019 692.684C793.414 694.944 792.379 697.567 790.737 699.817C785.099 707.547 778.531 714.601 772.25 721.796C765.643 729.364 758.968 737.282 751.58 744.099C749.204 746.292 746.428 748.008 744.75 750.824L744.84 751.75C747.726 752.638 750.947 752.478 753.951 752.528L770 752.605L816.778 752.685L831.007 752.992C834.681 753.161 838.399 753.572 842.064 753.148C834.124 761.33 824.925 768.418 817.297 776.829C810.57 784.246 805.573 792.505 801.464 801.573C804.114 809.263 807.418 817.363 812.752 823.573C810.265 825.89 798.562 833.673 795.542 833.739C787.217 839.434 776.588 843.733 767.403 847.886L735.04 862.953L715.5 873.118L676.933 893.058C674.198 894.506 671.28 895.63 668.579 897.131C667.062 897.974 665.751 899.139 664.25 899.998L649.106 907.902C647.777 908.596 645.367 909.45 644.379 910.508C643.513 911.03 642.677 911.536 641.75 911.943C637.99 907.645 636.307 900.26 634.037 895C630.201 886.11 625.638 877.427 622.327 868.322L617.21 854.934C617.922 853.911 618.951 852.664 619.335 851.474C620.649 847.402 617.763 842.261 616.286 838.557C619.665 833.308 621.656 827.333 625.611 822.395C626.776 822.589 626.342 822.47 627.311 822.781C636.585 825.765 646.32 824.344 655.822 825.267C658.901 825.566 662.159 827.078 665.078 827.242C665.727 827.279 668.13 825.958 668.817 825.654C672.335 824.094 675.683 822.139 678.702 819.745C681.692 817.373 684.404 814.451 687.25 811.882C698.301 801.909 708.514 791.127 718.768 780.35C721.552 777.424 725.447 774.295 727.633 770.947C731.438 765.119 733.749 757.942 736.229 751.468C737.615 747.85 738.363 743.928 739.45 740.202L749.654 701.318C751.105 695.563 754.451 688.423 754.134 682.516C753.92 678.533 751.993 675.028 750.607 671.35L744.252 654.371C740.944 645.371 738.213 635.696 734.16 627.001C733.551 625.695 732.398 623.099 731.415 622.111C730.276 620.966 725.953 619.528 724.311 618.648C713.286 612.734 702.307 606.447 690.819 601.437C687.062 599.798 683.004 598.671 679.156 597.221C684.297 593.392 688.612 588.221 692.801 583.407C697.327 578.206 702.21 573.079 705.25 566.816C708.071 561.003 708.512 553.992 709.86 547.727L711.996 539.438L717.217 513.722C718.21 509.741 718.263 505.21 719.713 501.396C720.725 498.735 723.851 495.911 725.597 493.512C729.049 488.767 732.512 483.847 735.454 478.773C744.909 462.469 751.441 444.714 754.317 426.063C755.733 416.882 756.33 407.191 753.825 398.114C751.74 390.559 748.59 384.739 744.93 377.925C743.578 375.406 742.023 371.442 739.5 370.024C737.041 370.433 734.616 372.74 732.5 374.031L719.795 381.548L735.674 293L742.195 253.744C743.132 247.143 744.243 240.667 744.438 233.986Z"/>
	<path fill="#FFFF3F" transform="scale(0.5 0.5)" d="M546.076 503.123L551.948 499.265L536.627 502.953L517.911 508.83C516.539 509.261 514.153 510.41 512.79 510.476C511.184 510.555 508.156 509.435 506.539 509.017C498.871 507.033 474.675 498.236 468.56 500.22C473.129 502.662 476.717 503.753 480.365 507.718C464.846 510.331 448.699 508.427 433.054 509.901L415.71 551.26C409.486 547.919 403.733 543.528 397.955 539.471C374.001 522.651 351.333 503.867 334.674 479.521C331.706 475.184 328.543 470.875 326.903 465.819C325.937 462.843 325.685 459.483 325.064 456.407L318.794 418.165C317.665 410.417 315.797 402.828 315.082 394.991C314.591 389.61 313.95 382.76 314.958 377.478C315.689 373.649 317.667 369.736 319.171 366.137C322.583 357.968 326.122 350.019 330.356 342.238C332.84 337.674 339.318 330.059 339.027 325L334.389 230.431C338.696 228.333 343.903 225.283 348.747 224.948C357.958 224.311 367.633 227.143 376.603 228.806L404.896 234.543C412.622 236.029 420.661 237.142 428.262 239.089C439.811 242.047 451.104 246.461 462.555 249.855C469.497 251.913 476.672 253.011 483.674 254.833L501.912 259.868C503.545 260.34 506.359 261.636 507.952 261.665C509.398 261.691 512.074 260.61 513.49 260.191L530.402 254.784L569 242.405L605.268 230.068C609.06 228.876 613.185 227.144 617.095 226.564C620.683 226.031 625.473 227.719 628.985 228.551C635.523 230.1 642.283 231.896 648.953 232.721C656.327 233.634 664.13 233.325 671.555 233.212C674.945 236.61 675.925 239.162 675.921 243.937C675.915 250.878 674.911 257.825 674.494 264.75L670.894 316.054C670.789 317.141 668.715 326.54 668.724 326.558C669.2 327.525 670.726 328.88 671.436 329.764L677.989 338.5C684.325 347.178 689.688 356.48 694.141 366.268C697.659 374.002 701.895 383.149 703.039 391.632C703.601 395.796 703.912 400.197 703.677 404.391C702.917 417.922 700.251 431.264 698.049 444.604C696.541 453.737 695.982 464.551 691.899 472.904C690.653 475.453 688.905 477.622 687.378 479.992C681.34 489.365 674.16 496.678 666.183 504.485C657.42 513.061 648.164 521.421 638.506 528.976C635.319 531.469 631.811 533.613 628.502 535.947L608.428 550.354C604.716 544.826 602.281 538.872 599.467 532.886C595.753 524.987 591.796 516.956 587.272 509.497L549.721 508.473L549.725 508.328C548.682 506.318 547.782 504.666 546.076 503.123Z"/>
	<path fill="#FDFDFC" transform="scale(0.5 0.5)" d="M513.676 476.25L514.049 476.149L514.75 476.61C516.664 484.211 516.432 496.232 512.579 503.25C511.904 503.11 511.986 503.226 511.477 502.703C510.451 501.649 510.063 500.202 510.132 498.755C510.276 495.739 512.2 492.311 512.75 489.269C513.494 485.156 513.399 480.451 513.676 476.25Z"/>
	<path fill="#1B1B19" transform="scale(0.5 0.5)" d="M573.892 410.788L544.035 423.48C535.7 416.789 528.197 407.848 522.712 398.688C522.59 398.484 521.852 397.352 521.845 397.197C521.769 395.533 523.139 391.744 523.603 389.919C526.144 379.919 531.805 370.192 538.251 362.276C540.055 360.061 541.693 357.731 544.183 356.25L544.25 356.888L542.811 358.748C536.774 366.958 532.07 377.248 533.769 387.64L533.92 388.5C534.379 391.244 535.281 393.27 536.531 395.714L558.656 386.574L578.427 378.25C601.655 369.628 625.987 361.337 647.568 349.045C651.529 352.648 654.889 356.879 658.598 360.736C663.278 365.602 668.418 370.127 672.876 375.191C677.457 380.395 681.557 386.278 685.552 391.946C688.043 395.48 690.662 398.673 692.48 402.631C690.252 402.419 687.032 400.334 684.901 399.361L673.694 394.831L661.223 390.569C658.029 389.45 654.073 387.739 650.671 387.616C647.936 387.516 644.768 388.275 642.05 388.692L641.946 389.396C641.773 390.299 641.51 390.753 641.013 391.5C641.196 393.326 641.499 393.905 642.255 395.5L642.54 396.498L644.328 400.757C649.799 403.831 654.735 407.286 659.97 410.723C665.046 414.056 671.087 417.868 674.808 422.742C666.684 421.057 659.311 417.32 650.978 416.1C650.714 418.25 649.886 420.033 648.88 421.935C643.182 432.703 631.133 442.523 619.349 445.915L618.5 446.145C614.351 447.296 607.49 447.777 603.25 447.012C600.844 446.577 598.605 445.67 596.25 445.079C594.722 444.697 593.112 444.548 591.625 444.014C584.373 441.413 577.294 434.072 574.169 427.056L573.79 426.194L573.486 425.56C572.077 422.385 572.551 414.03 573.892 410.788Z"/>
	<path fill="#EEEF20" transform="scale(0.5 0.5)" d="M644.328 400.757C634.586 396.793 623.855 395.802 613.585 394.236L642.05 388.692L641.946 389.396C641.773 390.299 641.51 390.753 641.013 391.5C641.196 393.326 641.499 393.905 642.255 395.5L642.54 396.498L644.328 400.757Z"/>
	<path fill="#FDFDFC" transform="scale(0.5 0.5)" d="M573.892 410.788C577.835 408.909 582.286 407.265 586.054 405.135C587.178 404.499 589.353 402.285 590.5 402.103C591.522 401.94 593.068 402.24 594.034 402.601C596.341 403.463 598.699 406.249 599.593 408.5C600.24 410.128 599.489 411.982 598.697 413.45C597.749 415.207 595.717 417.881 593.656 418.354C589.603 419.284 586.354 417.803 582.992 415.684L582.309 416.25C582.615 422.098 586.333 428.795 590.583 432.779C596.51 438.337 604.199 440.606 612.188 440.031C619.158 439.53 625.512 435.387 629.885 430.116C633.897 425.279 635.776 420.141 636.733 413.972L650.978 416.1C650.714 418.25 649.886 420.033 648.88 421.935C643.182 432.703 631.133 442.523 619.349 445.915L618.5 446.145C614.351 447.296 607.49 447.777 603.25 447.012C600.844 446.577 598.605 445.67 596.25 445.079C594.722 444.697 593.112 444.548 591.625 444.014C584.373 441.413 577.294 434.072 574.169 427.056L573.79 426.194L573.486 425.56C572.077 422.385 572.551 414.03 573.892 410.788Z"/>
	<path fill="#1B1B19" transform="scale(0.5 0.5)" d="M324.69 394.946C331.373 385.684 337.257 376.174 344.485 367.306L352.537 357.75C355.686 354.368 359.066 351.441 361.724 347.611C365.684 350.712 369.592 353.61 374.156 355.767C386.409 361.56 399.529 365.954 412.188 370.789L442.411 382.816L457.575 388.253L473.344 394.627C476.036 395.733 479.393 397.424 482.25 397.685C484.283 395.409 483.474 388.74 483.32 385.75C482.962 378.803 478.603 371.663 475.172 365.692C482.571 372.386 487.317 379.142 492.046 387.825C493.585 390.651 495.366 393.358 496.381 396.426C490.203 407.203 480.041 415.749 469.981 422.788L469.543 422.592L450.472 415.687C447.612 414.567 444.661 413.504 441.897 412.16C440.425 411.443 438.274 409.825 436.692 409.681L439.04 417.498C439.552 416.471 440.015 415.475 440.75 414.583C443.396 415.15 445.922 416.485 447.956 418.25L447.833 421.389C447.503 421.761 447.653 421.54 447.406 422.154C444.492 429.398 440.046 435.775 433.486 440.119C425.219 445.594 415.303 448.321 405.374 446.186C392.142 443.34 378.955 435.106 371.563 423.646C369.535 420.502 369.124 418.703 369.888 415.082L355.244 417.581L364.589 411.81C357.1 412.527 348.698 411.674 341.649 414.465L341.745 418.25L341 418.328L340.115 416.997C339.729 415.817 339.863 415.553 339 414.5C338.198 413.522 337.605 412.9 337.141 411.666L337 411.25L336.25 410.745C335.422 408.559 332.435 405.722 330.475 404.457C328.594 403.243 327.121 401.624 325.314 400.327C324.082 399.443 323.518 399.883 322.068 400.119L321.377 399C321.795 397.433 322.852 396.223 323.787 394.926L324.69 394.946Z"/>
	<path fill="#EEEF20" transform="scale(0.5 0.5)" d="M324.69 394.946L324.466 395.36C323.588 396.955 322.583 398.377 321.49 399.83L344.024 390.443C346.598 389.481 349.866 387.909 352.594 387.593C361.541 386.555 371.699 388.666 380.593 389.707C376.91 392.227 372.935 393.694 369.035 395.75C367.226 396.704 365.713 397.902 363.781 398.657C358.61 400.678 353.866 405.582 349.311 408.807C347.317 410.218 342.75 412.231 341.702 414.318L341.649 414.465L341.745 418.25L341 418.328L340.115 416.997C339.729 415.817 339.863 415.553 339 414.5C338.198 413.522 337.605 412.9 337.141 411.666L337 411.25L336.25 410.745C335.422 408.559 332.435 405.722 330.475 404.457C328.594 403.243 327.121 401.624 325.314 400.327C324.082 399.443 323.518 399.883 322.068 400.119L321.377 399C321.795 397.433 322.852 396.223 323.787 394.926L324.69 394.946Z"/>
	<path fill="#FDFDFC" transform="scale(0.5 0.5)" d="M369.888 415.082C374.347 413.809 378.264 412.311 382.257 409.938C382.575 407.103 383.097 404.501 383.842 401.75C385.872 400.39 393.096 401.024 395.763 401.056C395.906 402.02 396.014 405.075 396.459 405.75C398.178 408.364 402.745 408.655 399.379 413.025C397.884 414.965 395.744 416.365 393.607 417.491C391.099 417.545 388.705 417.681 386.25 417.066L385.49 416.88L385.038 416.75C384.576 421.59 388.733 427.207 391.705 430.842C395.943 436.026 403.097 439.533 409.712 439.968C417.227 440.462 423.718 438.28 429.362 433.268C432.908 430.12 435.901 425.928 437.694 421.535C438.066 420.623 438.49 418.114 439.04 417.498C439.552 416.471 440.015 415.475 440.75 414.583C443.396 415.15 445.922 416.485 447.956 418.25L447.833 421.389C447.503 421.761 447.653 421.54 447.406 422.154C444.492 429.398 440.046 435.775 433.486 440.119C425.219 445.594 415.303 448.321 405.374 446.186C392.142 443.34 378.955 435.106 371.563 423.646C369.535 420.502 369.124 418.703 369.888 415.082Z"/>
</svg>
